<?xml version="1.0" encoding="UTF-8" standalone="no"?>
<!-- Created with Inkscape (http://www.inkscape.org/) -->

<svg
   xmlns:dc="http://purl.org/dc/elements/1.1/"
   xmlns:cc="http://creativecommons.org/ns#"
   xmlns:rdf="http://www.w3.org/1999/02/22-rdf-syntax-ns#"
   xmlns:svg="http://www.w3.org/2000/svg"
   xmlns="http://www.w3.org/2000/svg"
   xmlns:sodipodi="http://sodipodi.sourceforge.net/DTD/sodipodi-0.dtd"
   xmlns:inkscape="http://www.inkscape.org/namespaces/inkscape"
   width="88.900024mm"
   height="35.718761mm"
   viewBox="0 0 88.900022 35.718762"
   version="1.1"
   id="svg12340"
   inkscape:version="0.92.1 r15371"
   sodipodi:docname="goods.svg">
  <defs
     id="defs12334" />
  <sodipodi:namedview
     id="base"
     pagecolor="#ffffff"
     bordercolor="#666666"
     borderopacity="1.0"
     inkscape:pageopacity="0.0"
     inkscape:pageshadow="2"
     inkscape:zoom="0.98994949"
     inkscape:cx="-106.53017"
     inkscape:cy="61.040818"
     inkscape:document-units="mm"
     inkscape:current-layer="layer1"
     showgrid="false"
     inkscape:window-width="1920"
     inkscape:window-height="1137"
     inkscape:window-x="-8"
     inkscape:window-y="-8"
     inkscape:window-maximized="1" />
  <metadata
     id="metadata12337">
    <rdf:RDF>
      <cc:Work
         rdf:about="">
        <dc:format>image/svg+xml</dc:format>
        <dc:type
           rdf:resource="http://purl.org/dc/dcmitype/StillImage" />
        <dc:title />
      </cc:Work>
    </rdf:RDF>
  </metadata>
  <g
     inkscape:label="Calque 1"
     inkscape:groupmode="layer"
     id="layer1"
     transform="translate(4.1429519e-8,-261.28124)">
    <g
       id="g12965"
       transform="translate(-68.309748,204.5645)">
      <g
         id="g4496">
        <path
           d="m 90.534747,87.988055 c 0,2.455998 -1.989453,4.44745 -4.445392,4.44745 H 72.75514 c -2.453983,0 -4.445392,-1.991452 -4.445392,-4.44745 V 61.319039 c 0,-2.454037 1.991409,-4.443533 4.445392,-4.443533 h 13.334215 c 2.455939,0 4.445392,1.989496 4.445392,4.443533 z"
           style="fill:#80d6f7;fill-opacity:1;fill-rule:nonzero;stroke:none;stroke-width:1.96007085"
           id="path4909"
           inkscape:connector-curvature="0" />
      </g>
      <path
         inkscape:connector-curvature="0"
         id="path4911"
         style="fill:none;stroke:#231f20;stroke-width:0.76216608;stroke-linecap:butt;stroke-linejoin:miter;stroke-miterlimit:4;stroke-dasharray:none;stroke-opacity:1"
         d="m 90.153664,87.702295 c 0,2.403358 -1.921228,4.352127 -4.292945,4.352127 H 72.983776 c -2.369828,0 -4.292945,-1.948769 -4.292945,-4.352127 V 61.604883 c 0,-2.401439 1.923117,-4.348294 4.292945,-4.348294 h 12.876943 c 2.371717,0 4.292945,1.946855 4.292945,4.348294 z" />
    </g>
    <g
       id="g12969"
       transform="matrix(6.0681377,0,0,6.1490805,-478.99799,-185.15155)">
      <path
         inkscape:connector-curvature="0"
         id="path4937"
         style="fill:#daa566;fill-opacity:1;fill-rule:nonzero;stroke:none;stroke-width:0.31263432"
         d="m 86.199191,77.636963 c 0,0.392555 -0.316345,0.71086 -0.707566,0.71086 h -2.122387 c -0.390908,0 -0.707566,-0.318305 -0.707566,-0.71086 v -4.262649 c 0,-0.392242 0.316658,-0.710233 0.707566,-0.710233 h 2.122387 c 0.391221,0 0.707566,0.317991 0.707566,0.710233 z" />
      <path
         inkscape:connector-curvature="0"
         id="path4939"
         style="fill:none;stroke:#231f20;stroke-width:0.12505373;stroke-linecap:butt;stroke-linejoin:miter;stroke-miterlimit:4;stroke-dasharray:none;stroke-opacity:1"
         d="m 86.199191,77.636963 c 0,0.392555 -0.316345,0.71086 -0.707566,0.71086 h -2.122387 c -0.390908,0 -0.707566,-0.318305 -0.707566,-0.71086 v -4.262649 c 0,-0.392242 0.316658,-0.710233 0.707566,-0.710233 h 2.122387 c 0.391221,0 0.707566,0.317991 0.707566,0.710233 z" />
    </g>
    <g
       id="g12973"
       transform="matrix(6.0681377,0,0,6.1490805,-490.89046,-222.04832)">
      <path
         inkscape:connector-curvature="0"
         id="path4965"
         style="fill:#80cc28;fill-opacity:1;fill-rule:nonzero;stroke:none;stroke-width:0.31263432"
         d="m 91.821587,83.637649 c 0,0.392555 -0.316346,0.710546 -0.707254,0.710546 h -2.122387 c -0.390909,0 -0.707878,-0.317991 -0.707878,-0.710546 v -4.262963 c 0,-0.391928 0.316969,-0.710233 0.707878,-0.710233 h 2.122387 c 0.390908,0 0.707254,0.318305 0.707254,0.710233 z" />
      <path
         inkscape:connector-curvature="0"
         id="path4967"
         style="fill:none;stroke:#231f20;stroke-width:0.12505373;stroke-linecap:butt;stroke-linejoin:miter;stroke-miterlimit:4;stroke-dasharray:none;stroke-opacity:1"
         d="m 91.821587,83.637649 c 0,0.392555 -0.316346,0.710546 -0.707254,0.710546 h -2.122387 c -0.390909,0 -0.707878,-0.317991 -0.707878,-0.710546 v -4.262963 c 0,-0.391928 0.316969,-0.710233 0.707878,-0.710233 h 2.122387 c 0.390908,0 0.707254,0.318305 0.707254,0.710233 z" />
    </g>
    <g
       id="g12977"
       transform="matrix(6.0681392,0,0,6.1490805,-527.4394,-195.31996)">
      <path
         inkscape:connector-curvature="0"
         id="path4993"
         style="fill:#fff200;fill-opacity:1;fill-rule:nonzero;stroke:none;stroke-width:0.31263429"
         d="m 101.50723,79.290923 c 0,0.392555 -0.31635,0.710546 -0.70757,0.710546 h -2.122386 c -0.390909,0 -0.707566,-0.317991 -0.707566,-0.710546 V 75.02796 c 0,-0.391928 0.316657,-0.710233 0.707566,-0.710233 h 2.122386 c 0.39122,0 0.70757,0.318305 0.70757,0.710233 z" />
      <path
         inkscape:connector-curvature="0"
         id="path4995"
         style="fill:none;stroke:#231f20;stroke-width:0.12505373;stroke-linecap:butt;stroke-linejoin:miter;stroke-miterlimit:4;stroke-dasharray:none;stroke-opacity:1"
         d="m 101.50723,79.290923 c 0,0.392555 -0.31635,0.710546 -0.70757,0.710546 h -2.122386 c -0.390909,0 -0.707566,-0.317991 -0.707566,-0.710546 V 75.02796 c 0,-0.391928 0.316657,-0.710233 0.707566,-0.710233 h 2.122386 c 0.39122,0 0.70757,0.318305 0.70757,0.710233 z" />
    </g>
  </g>
</svg>
