<?xml version="1.0" encoding="UTF-8"?>
<!DOCTYPE svg PUBLIC "-//W3C//DTD SVG 1.1//EN" "http://www.w3.org/Graphics/SVG/1.1/DTD/svg11.dtd">
<!-- Creator: CorelDRAW X6 -->
<svg xmlns="http://www.w3.org/2000/svg" xml:space="preserve" width="1.43055in" height="1.43055in" version="1.1" style="shape-rendering:geometricPrecision; text-rendering:geometricPrecision; image-rendering:optimizeQuality; fill-rule:evenodd; clip-rule:evenodd"
viewBox="0 0 1431 1431"
 xmlns:xlink="http://www.w3.org/1999/xlink">
 <defs>
  <style type="text/css">
   <![CDATA[
    .str6 {stroke:#848688;stroke-width:9.71654}
    .str5 {stroke:#848688;stroke-width:14.4213}
    .str4 {stroke:#934A9B;stroke-width:16.6654}
    .str2 {stroke:#ED3237;stroke-width:16.6654}
    .str0 {stroke:#373435;stroke-width:42.189}
    .str3 {stroke:#D8C5E0;stroke-width:44.4449}
    .str1 {stroke:#F6997E;stroke-width:44.4449}
    .fil2 {fill:none;fill-rule:nonzero}
    .fil1 {fill:#373435;fill-rule:nonzero}
    .fil4 {fill:#BE97C5;fill-rule:nonzero}
    .fil5 {fill:#D4D5D7;fill-rule:nonzero}
    .fil3 {fill:#FBC9B5;fill-rule:nonzero}
    .fil0 {fill:#FEFEFE;fill-rule:nonzero}
   ]]>
  </style>
 </defs>
 <g id="Layer_x0020_1">
  <metadata id="CorelCorpID_0Corel-Layer"/>
  <path class="fil0" d="M1433 715c-1,395 -321,715 -717,715 -396,0 -717,-321 -717,-717 0,-395 320,-715 714,-717l4 0c394,1 714,321 714,715l0 3z"/>
  <polygon class="fil1" points="792,512 846,651 989,607 914,736 1037,820 890,843 901,991 792,890 682,991 693,843 546,820 669,736 594,607 737,651 "/>
  <polygon class="fil2 str0" points="792,512 846,651 989,607 914,736 1037,820 890,843 901,991 792,890 682,991 693,843 546,820 669,736 594,607 737,651 "/>
  <polygon class="fil2 str1" points="599,275 621,330 677,313 648,364 696,397 638,406 642,465 599,425 556,465 560,406 502,397 550,364 521,313 577,330 "/>
  <polygon class="fil3" points="599,275 621,330 677,313 648,364 696,397 638,406 642,465 599,425 556,465 560,406 502,397 550,364 521,313 577,330 "/>
  <polygon class="fil2 str2" points="599,275 621,330 677,313 648,364 696,397 638,406 642,465 599,425 556,465 560,406 502,397 550,364 521,313 577,330 "/>
  <polygon class="fil2 str1" points="987,275 1008,330 1064,313 1035,364 1084,397 1025,406 1030,465 987,425 943,465 948,406 889,397 938,364 909,313 965,330 "/>
  <polygon class="fil0" points="987,275 1008,330 1064,313 1035,364 1084,397 1025,406 1030,465 987,425 943,465 948,406 889,397 938,364 909,313 965,330 "/>
  <polygon class="fil2 str2" points="987,275 1008,330 1064,313 1035,364 1084,397 1025,406 1030,465 987,425 943,465 948,406 889,397 938,364 909,313 965,330 "/>
  <polygon class="fil2 str3" points="379,564 400,619 457,602 427,653 476,686 418,695 422,754 379,714 336,754 340,695 282,686 330,653 301,602 357,619 "/>
  <polygon class="fil4" points="379,564 400,619 457,602 427,653 476,686 418,695 422,754 379,714 336,754 340,695 282,686 330,653 301,602 357,619 "/>
  <polygon class="fil2 str4" points="379,564 400,619 457,602 427,653 476,686 418,695 422,754 379,714 336,754 340,695 282,686 330,653 301,602 357,619 "/>
  <path class="fil5" d="M470 1156c47,-13 93,-40 93,-233l-185 0c0,192 46,220 93,233z"/>
  <path class="fil2 str5" d="M470 1156c47,-13 93,-40 93,-233l-185 0c0,192 46,220 93,233z"/>
  <polygon class="fil5" points="470,970 483,1002 516,992 499,1022 527,1041 493,1046 495,1080 470,1057 445,1080 447,1046 414,1041 442,1022 425,992 458,1002 "/>
  <polygon class="fil2 str6" points="470,970 483,1002 516,992 499,1022 527,1041 493,1046 495,1080 470,1057 445,1080 447,1046 414,1041 442,1022 425,992 458,1002 "/>
 </g>
</svg>
