<?xml version="1.0" encoding="UTF-8"?>
<!DOCTYPE svg PUBLIC "-//W3C//DTD SVG 1.1//EN" "http://www.w3.org/Graphics/SVG/1.1/DTD/svg11.dtd">
<!-- Creator: CorelDRAW X6 -->
<svg xmlns="http://www.w3.org/2000/svg" xml:space="preserve" width="1.43055in" height="1.43055in" version="1.1" style="shape-rendering:geometricPrecision; text-rendering:geometricPrecision; image-rendering:optimizeQuality; fill-rule:evenodd; clip-rule:evenodd"
viewBox="0 0 1431 1431"
 xmlns:xlink="http://www.w3.org/1999/xlink">
 <defs>
  <style type="text/css">
   <![CDATA[
    .fil1 {fill:#96989A;fill-rule:nonzero}
    .fil9 {fill:#BDBFC1;fill-rule:nonzero}
    .fil7 {fill:#BE97C5;fill-rule:nonzero}
    .fil6 {fill:#D8C5E0;fill-rule:nonzero}
    .fil8 {fill:#E8E9EA;fill-rule:nonzero}
    .fil5 {fill:#EAE1EF;fill-rule:nonzero}
    .fil10 {fill:#ED3237;fill-rule:nonzero}
    .fil4 {fill:#F6997E;fill-rule:nonzero}
    .fil2 {fill:#FBC9B5;fill-rule:nonzero}
    .fil3 {fill:#FDE1D4;fill-rule:nonzero}
    .fil0 {fill:#FEFEFE;fill-rule:nonzero}
   ]]>
  </style>
 </defs>
 <g id="Layer_x0020_1">
  <metadata id="CorelCorpID_0Corel-Layer"/>
  <path class="fil0" d="M1433 717c-2,394 -321,713 -715,713l-3 0c-395,-1 -715,-321 -715,-717 0,-395 320,-715 714,-717l4 0c394,1 713,320 715,713l0 7z"/>
  <polygon class="fil1" points="837,896 770,833 702,896 709,804 618,790 694,738 648,658 736,685 770,600 804,685 891,658 846,738 922,790 831,804 "/>
  <path class="fil1" d="M877 979l-107 -99 -108 99 11 -146 -145 -22 121 -83 -73 -127 140 43 38 -96 16 -40 54 136 140 -43 -73 127 121 83 -145 22 11 146zm-107 -145l68 63 -7 -92 91 -14 -76 -52 46 -80 -88 27 -34 -86 -34 86 -88 -27 46 80 -76 52 91 14 -7 92 68 -63z"/>
  <path class="fil2" d="M671 559l-56 -51 -56 51 6 -76 -75 -12 63 -43 -38 -66 72 22 11 -29 17 -42 28 70 72 -22 -38 66 63 43 -75 12 6 76zm-13 -27l0 0 -4 -58 57 -9 -48 -33 29 -50 -55 17 -21 -54 -6 16 -15 38 -55 -17 29 50 -48 33 57 9 -4 58 43 -39 42 39z"/>
  <polygon class="fil3" points="642,499 616,475 589,499 592,463 556,458 586,437 568,405 602,416 616,382 629,416 664,405 646,437 676,458 640,463 "/>
  <path class="fil4" d="M658 532l-42 -39 -43 39 4 -58 -57 -9 48 -33 -29 -50 55 17 15 -38 6 -16 21 54 55 -17 -29 50 48 33 -57 9 4 58zm-42 -57l27 25 -3 -36 36 -6 -30 -21 18 -32 -35 11 -13 -34 -13 34 -35 -11 18 32 -30 21 36 6 -3 36 27 -25z"/>
  <path class="fil2" d="M981 559l-56 -51 -56 51 6 -76 -75 -12 63 -43 -38 -66 72 22 11 -29 17 -42 28 70 72 -22 -38 66 63 43 -75 12 5 76zm-13 -27l0 0 -4 -58 57 -9 -48 -33 29 -50 -55 17 -21 -54 -6 16 -15 38 -55 -17 29 50 -48 33 57 9 -4 58 43 -39 42 39z"/>
  <polygon class="fil0" points="953,499 926,475 899,499 902,463 866,458 896,437 878,405 912,416 926,382 939,416 974,405 956,437 986,458 950,463 "/>
  <path class="fil4" d="M968 532l-42 -39 -43 39 4 -58 -57 -9 48 -33 -29 -50 55 17 15 -38 6 -16 21 54 55 -17 -29 50 48 33 -57 9 4 58zm-42 -57l27 25 -3 -36 36 -6 -30 -21 18 -32 -35 11 -13 -34 -13 34 -35 -11 18 32 -30 21 36 6 -3 36 27 -25z"/>
  <path class="fil5" d="M495 791l-55 -51 -56 51 6 -76 -75 -12 63 -43 -38 -66 72 22 11 -29 17 -42 28 70 72 -22 -38 66 63 43 -75 12 5 76zm-13 -27l0 0 -4 -58 57 -9 -48 -33 29 -50 -55 17 -21 -54 -6 16 -15 38 -55 -17 29 50 -48 33 57 9 -4 58 43 -39 42 39z"/>
  <polygon class="fil6" points="466,731 440,706 413,731 415,694 379,689 409,668 391,637 426,648 440,614 453,648 488,637 470,668 500,689 464,694 "/>
  <path class="fil7" d="M482 763l-42 -39 -43 39 4 -58 -57 -9 48 -33 -29 -50 55 17 15 -38 6 -16 21 54 55 -17 -29 50 48 33 -57 9 4 58zm-42 -57l27 25 -3 -36 36 -6 -30 -20 18 -32 -35 11 -13 -34 -13 34 -35 -11 18 32 -30 20 36 6 -3 36 27 -25z"/>
  <path class="fil8" d="M513 1063c-18,-5 -33,-12 -46,-36 -13,-24 -22,-65 -22,-138l137 0c0,73 -9,114 -22,138 -13,24 -28,31 -46,36zm25 -45l0 0 -2 -34 33 -5 -28 -19 17 -29 -32 10 -12 -31 -4 9 -9 22 -32 -10 17 29 -28 19 33 5 -3 34 25 -23 25 23z"/>
  <path class="fil9" d="M513 1075l-2 -1c-19,-5 -40,-15 -55,-42 -15,-28 -24,-72 -24,-150l0 -6 160 0 0 6c0,77 -9,122 -24,150 -15,28 -35,37 -55,42l0 0 -2 1zm0 -6l0 0 2 -6 -2 6zm-68 -180c0,73 10,114 22,138 13,24 28,31 46,36 18,-5 33,-12 46,-36 13,-24 22,-65 22,-138l-137 0z"/>
  <polygon class="fil8" points="528,999 513,984 497,999 499,978 478,974 495,962 485,944 505,950 513,930 521,950 541,944 530,962 548,974 527,978 "/>
  <path class="fil9" d="M537 1018l-25 -23 -25 23 3 -34 -33 -5 28 -19 -17 -29 32 10 9 -22 4 -9 12 31 32 -10 -17 29 28 19 -33 5 2 34zm-25 -34l16 14 -1 -21 21 -3 -17 -12 11 -18 -20 6 -8 -20 -8 20 -20 -6 11 18 -17 12 21 3 -2 21 16 -14z"/>
  <path class="fil10" d="M718 195l0 49c130,0 247,53 332,138 85,85 138,202 138,332 0,130 -53,247 -138,332 -85,85 -202,138 -332,138 -130,0 -247,-53 -332,-138 -85,-85 -138,-202 -138,-332 0,-130 53,-247 138,-332 85,-85 202,-138 332,-138l0 -97c-156,0 -299,64 -401,166 -103,102 -166,245 -166,401 0,156 64,299 166,401 102,103 245,166 401,166 156,0 299,-64 401,-166 103,-102 166,-245 166,-401 0,-156 -64,-299 -166,-401 -102,-103 -245,-166 -401,-166l0 49z"/>
  <polygon class="fil10" points="1119,1046 386,313 317,382 1051,1115 "/>
 </g>
</svg>
