<?xml version="1.0" encoding="UTF-8"?>
<svg width="81.951" height="608" version="1.1" viewBox="0 0 21.681501 160.873" xmlns="http://www.w3.org/2000/svg" xmlns:cc="http://creativecommons.org/ns#" xmlns:dc="http://purl.org/dc/elements/1.1/" xmlns:rdf="http://www.w3.org/1999/02/22-rdf-syntax-ns#">
<style>.s0{fill:#daa566;}.s1{fill:#80d6f7;}.s2{fill:#fff200;}.s3{fill:#80cc28;}.s4{fill:#fff;}.s5{fill:none;stroke-linejoin:round;stroke-width:1.2;stroke:#231f20;}.s6{fill:none;stroke-linecap:round;stroke-linejoin:round;stroke-width:0.4;stroke:#231f20;}.s7{fill:none;stroke-linejoin:round;stroke-width:1.2;stroke:#ed1c24;}.s8{fill:none;stroke-width:0.4;stroke:#231f20;}.s9{fill:#e9e9e9;}.s10{fill:none;stroke-linecap:round;stroke-linejoin:round;stroke-width:1.2;stroke:#ed1c24;}.s11{fill:#fff;stroke-linejoin:round;stroke-width:1.2;stroke:#231f20;}.s12{fill:#fff;stroke-linejoin:round;stroke-width:1.2;stroke:#ed1c24;}</style>
<defs>
<clipPath id="q">
<path d="m187.09 629.29h36.28v30.61h-36.28z"/>
</clipPath>
<clipPath id="p">
<path d="m188.85 653.87h23.12v-18.54h-23.12z"/>
</clipPath>
<clipPath id="o">
<path d="m188.85 653.87h23.12v-18.54h-23.12z"/>
</clipPath>
<clipPath id="ac">
<path d="m345.35 629.29h30.24v30.61h-30.24z"/>
</clipPath>
<clipPath id="ab">
<path d="m348.61 654.47h23.72v-19.74h-23.72z"/>
</clipPath>
<clipPath id="aa">
<path d="m348.61 654.47h23.72v-19.74h-23.72z"/>
</clipPath>
<clipPath id="z">
<path d="m377.95 629.29h30.24v30.61h-30.24z"/>
</clipPath>
<clipPath id="y">
<path d="m381.21 654.47h23.72v-19.74h-23.72z"/>
</clipPath>
<clipPath id="x">
<path d="m381.21 654.47h23.72v-19.74h-23.72z"/>
</clipPath>
<clipPath id="w">
<path d="m345.35 599.81h30.24v30.61h-30.24z"/>
</clipPath>
<clipPath id="v">
<path d="m348.61 624.99h23.72v-19.74h-23.72z"/>
</clipPath>
<clipPath id="u">
<path d="m348.61 624.99h23.72v-19.74h-23.72z"/>
</clipPath>
<clipPath id="t">
<path d="m377.95 599.81h30.24v30.61h-30.24z"/>
</clipPath>
<clipPath id="s">
<path d="m381.21 624.99h23.72v-19.74h-23.72z"/>
</clipPath>
<clipPath id="r">
<path d="m381.21 624.99h23.72v-19.74h-23.72z"/>
</clipPath>
<clipPath id="aj">
<path d="m26.93 174.57h53.61v27.46h-53.61z"/>
</clipPath>
<clipPath id="ai">
<path d="m34.59 222.11h31.62v-39.55h-31.62z"/>
</clipPath>
<clipPath id="ah">
<path d="m34.59 222.11h31.62v-39.55h-31.62z"/>
</clipPath>
<clipPath id="ak">
<path d="m79.56 197.79h20.34v19.74h-20.34z"/>
</clipPath>
<clipPath id="am">
<path d="m72.39 281.75h32.43v21.34h-32.43z"/>
</clipPath>
<clipPath id="an">
<path d="m72.39 311.42h32.43v21.34h-32.43z"/>
</clipPath>
<clipPath id="ag">
<path d="m221.7 85.97h26.4v24.54h-26.4z"/>
</clipPath>
<clipPath id="m">
<path d="m27.465 420.4h27.955v-21.013h-27.955z"/>
</clipPath>
<clipPath id="k">
<path d="m27.465 420.4h27.955v-21.013h-27.955z"/>
</clipPath>
<clipPath id="n">
<path d="m26.929 393.56h36.283v30.614h-36.283z"/>
</clipPath>
<clipPath id="l">
<path d="m27.465 420.4h27.955v-21.013h-27.955z"/>
</clipPath>
<clipPath id="j">
<path d="m27.465 420.4h27.955v-21.013h-27.955z"/>
</clipPath>
<clipPath id="ao">
<path d="m218.38 310h31.011v15.82h-31.011z"/>
</clipPath>
<clipPath id="ap">
<path d="m213.89 270.08h35.5v20.007h-35.5z"/>
</clipPath>
<clipPath id="i">
<path d="m27.874 473.72h36.283v30.614h-36.283z"/>
</clipPath>
<clipPath id="g">
<path d="m29.11 498.89h29.423v-19.742h-29.423z"/>
</clipPath>
<clipPath id="e">
<path d="m29.11 498.89h29.423v-19.742h-29.423z"/>
</clipPath>
<clipPath id="h">
<path d="m27.874 473.72h36.283v30.614h-36.283z"/>
</clipPath>
<clipPath id="f">
<path d="m29.11 498.89h29.423v-19.742h-29.423z"/>
</clipPath>
<clipPath id="d">
<path d="m29.11 498.89h29.423v-19.742h-29.423z"/>
</clipPath>
<clipPath id="c">
<path d="m27.874 444.8h36.283v30.614h-36.283z"/>
</clipPath>
<clipPath id="b">
<path d="m29.11 469.98h29.423v-19.741h-29.423z"/>
</clipPath>
<clipPath id="a">
<path d="m29.11 469.98h29.423v-19.741h-29.423z"/>
</clipPath>
<clipPath id="al">
<path d="m216.15 203.11h33.242v19.859h-33.242z"/>
</clipPath>
<clipPath id="af">
<path d="m341.58 394.2h53.858v30.614h-53.858z"/>
</clipPath>
<clipPath id="ae">
<path d="m346.73 418.64h43.541v-18.265h-43.541z"/>
</clipPath>
<clipPath id="ad">
<path d="m346.73 418.64h43.541v-18.265h-43.541z"/>
</clipPath>
</defs>
<metadata>
<rdf:RDF>
<cc:Work rdf:about="">
<dc:format>image/svg+xml</dc:format>
<dc:type rdf:resource="http://purl.org/dc/dcmitype/StillImage"/>
</cc:Work>
</rdf:RDF>
</metadata>
<g transform="translate(209.39 36.514)">
<g transform="matrix(.45662 0 0 -.45662 -295.62 262.05)">
<g clip-path="url(#q)">
<g clip-path="url(#p)">
<g clip-path="url(#o)">
<path d="m211.98 644.6c0 3.76-3.05 6.8-6.8 6.8v-6.8z" fill="#daa566"/>
<path d="m205.17 651.4c-3.76 0-6.8-3.05-6.8-6.8h6.8z" fill="#80d6f7"/>
<path d="m205.17 644.6v-6.8c3.76 0 6.8 3.05 6.8 6.8z" fill="#fff200"/>
<path d="m198.37 644.6c0-3.76 3.05-6.8 6.8-6.8v6.8z" fill="#80cc28"/>
<path d="m205.17 641.2c-1.88 0-3.4 1.52-3.4 3.4s1.52 3.4 3.4 3.4" fill="#fff"/>
<path class="s5" d="m205.17 641.2c-1.88 0-3.4 1.52-3.4 3.4s1.52 3.4 3.4 3.4" fill="none" stroke="#231f20" stroke-linejoin="round" stroke-width="1.2"/>
<path d="m200.39 644.6v6.8c0 1.25-1.01 2.27-2.27 2.27h-3.4v-9.07z" fill="#daa566"/>
<path d="m194.72 653.67h-3.4c-1.25 0-2.27-1.02-2.27-2.27v-6.8h5.67z" fill="#80d6f7"/>
<path d="m189.05 644.6v-6.8c0-1.25 1.02-2.27 2.27-2.27h3.4v9.07z" fill="#80cc28"/>
<path d="m194.72 644.6v-9.07h3.4c1.25 0 2.27 1.01 2.27 2.27v6.8z" fill="#fff200"/>
<path class="s6" d="m200.39 637.8c0-1.25-1.01-2.27-2.27-2.27h-6.8c-1.25 0-2.27 1.01-2.27 2.27v13.61c0 1.25 1.02 2.27 2.27 2.27h6.8c1.25 0 2.27-1.02 2.27-2.27z" fill="none" stroke="#231f20" stroke-linecap="round" stroke-linejoin="round" stroke-width=".4"/>
<path d="m205.17 648c1.88 0 3.4-1.52 3.4-3.4s-1.52-3.4-3.4-3.4" fill="#fff"/>
<path class="s7" d="m205.17 648c1.88 0 3.4-1.52 3.4-3.4s-1.52-3.4-3.4-3.4" fill="none" stroke="#ed1c24" stroke-linejoin="round" stroke-width="1.2"/>
<path d="m205.5 644.6-3.86 2.23v-1h-2.94v-2.46h2.94v-1z" fill="#fff"/>
<path class="s6" d="m205.5 644.6-3.86 2.23v-1h-2.94v-2.46h2.94v-1z" fill="none" stroke="#231f20" stroke-linecap="round" stroke-linejoin="round" stroke-width=".4"/>
</g>
</g>
</g>
</g>
<g transform="matrix(.45662 0 0 -.45662 -368.84 270.52)">
<g clip-path="url(#ac)">
<g clip-path="url(#ab)">
<g clip-path="url(#aa)">
<path d="m372.33 644.6c0-3.76-3.05-6.8-6.8-6.8-3.76 0-6.8 3.05-6.8 6.8 0 3.76 3.05 6.8 6.8 6.8 3.76 0 6.8-3.05 6.8-6.8" fill="#80d6f7"/>
<path d="m365.53 641.2c-1.88 0-3.4 1.52-3.4 3.4s1.52 3.4 3.4 3.4" fill="#fff"/>
<path class="s5" d="m365.53 641.2c-1.88 0-3.4 1.52-3.4 3.4s1.52 3.4 3.4 3.4" fill="none" stroke="#231f20" stroke-linejoin="round" stroke-width="1.2"/>
<path d="m365.53 648c1.88 0 3.4-1.52 3.4-3.4s-1.52-3.4-3.4-3.4" fill="#fff"/>
<path class="s7" d="m365.53 648c1.88 0 3.4-1.52 3.4-3.4s-1.52-3.4-3.4-3.4" fill="none" stroke="#ed1c24" stroke-linejoin="round" stroke-width="1.2"/>
<path d="m360.75 637.8c0-1.25-1.02-2.27-2.27-2.27h-6.8c-1.25 0-2.27 1.02-2.27 2.27v13.61c0 1.25 1.02 2.27 2.27 2.27h6.8c1.25 0 2.27-1.02 2.27-2.27z" fill="#80d6f7"/>
<path class="s8" d="m360.75 637.8c0-1.25-1.02-2.27-2.27-2.27h-6.8c-1.25 0-2.27 1.02-2.27 2.27v13.61c0 1.25 1.02 2.27 2.27 2.27h6.8c1.25 0 2.27-1.02 2.27-2.27z" fill="none" stroke="#231f20" stroke-width=".4"/>
<path d="m365.85 644.6-3.86 2.23v-1h-2.94v-2.46h2.94v-1z" fill="#fff"/>
<path class="s6" d="m365.85 644.6-3.86 2.23v-1h-2.94v-2.46h2.94v-1z" fill="none" stroke="#231f20" stroke-linecap="round" stroke-linejoin="round" stroke-width=".4"/>
</g>
</g>
</g>
</g>
<g transform="matrix(.45662 0 0 -.45662 -383.73 278.99)">
<g clip-path="url(#z)">
<g clip-path="url(#y)">
<g clip-path="url(#x)">
<path d="m404.93 644.6c0-3.76-3.04-6.8-6.8-6.8s-6.8 3.05-6.8 6.8c0 3.76 3.05 6.8 6.8 6.8 3.76 0 6.8-3.05 6.8-6.8" fill="#daa566"/>
<path d="m398.13 641.2c-1.88 0-3.4 1.52-3.4 3.4s1.52 3.4 3.4 3.4" fill="#fff"/>
<path class="s5" d="m398.13 641.2c-1.88 0-3.4 1.52-3.4 3.4s1.52 3.4 3.4 3.4" fill="none" stroke="#231f20" stroke-linejoin="round" stroke-width="1.2"/>
<path d="m398.13 648c1.88 0 3.4-1.52 3.4-3.4s-1.52-3.4-3.4-3.4" fill="#fff"/>
<path class="s7" d="m398.13 648c1.88 0 3.4-1.52 3.4-3.4s-1.52-3.4-3.4-3.4" fill="none" stroke="#ed1c24" stroke-linejoin="round" stroke-width="1.2"/>
<path d="m393.35 637.8c0-1.25-1.01-2.27-2.27-2.27h-6.8c-1.25 0-2.27 1.02-2.27 2.27v13.61c0 1.25 1.01 2.27 2.27 2.27h6.8c1.25 0 2.27-1.02 2.27-2.27z" fill="#daa566"/>
<path class="s8" d="m393.35 637.8c0-1.25-1.01-2.27-2.27-2.27h-6.8c-1.25 0-2.27 1.02-2.27 2.27v13.61c0 1.25 1.01 2.27 2.27 2.27h6.8c1.25 0 2.27-1.02 2.27-2.27z" fill="none" stroke="#231f20" stroke-width=".4"/>
<path d="m398.45 644.6-3.86 2.23v-1h-2.94v-2.46h2.94v-1z" fill="#fff"/>
<path class="s6" d="m398.45 644.6-3.86 2.23v-1h-2.94v-2.46h2.94v-1z" fill="none" stroke="#231f20" stroke-linecap="round" stroke-linejoin="round" stroke-width=".4"/>
</g>
</g>
</g>
</g>
<g transform="matrix(.45662 0 0 -.45662 -368.84 273.99)">
<g clip-path="url(#w)">
<g clip-path="url(#v)">
<g clip-path="url(#u)">
<path d="m372.33 615.12c0-3.76-3.05-6.8-6.8-6.8-3.76 0-6.8 3.05-6.8 6.8 0 3.76 3.05 6.8 6.8 6.8 3.76 0 6.8-3.05 6.8-6.8" fill="#80cc28"/>
<path d="m365.53 611.72c-1.88 0-3.4 1.52-3.4 3.4s1.52 3.4 3.4 3.4" fill="#fff"/>
<path class="s5" d="m365.53 611.72c-1.88 0-3.4 1.52-3.4 3.4s1.52 3.4 3.4 3.4" fill="none" stroke="#231f20" stroke-linejoin="round" stroke-width="1.2"/>
<path d="m365.53 618.52c1.88 0 3.4-1.52 3.4-3.4s-1.52-3.4-3.4-3.4" fill="#fff"/>
<path class="s7" d="m365.53 618.52c1.88 0 3.4-1.52 3.4-3.4s-1.52-3.4-3.4-3.4" fill="none" stroke="#ed1c24" stroke-linejoin="round" stroke-width="1.2"/>
<path d="m360.75 608.32c0-1.25-1.02-2.27-2.27-2.27h-6.8c-1.25 0-2.27 1.02-2.27 2.27v13.61c0 1.25 1.02 2.27 2.27 2.27h6.8c1.25 0 2.27-1.02 2.27-2.27z" fill="#80cc28"/>
<path class="s8" d="m360.75 608.32c0-1.25-1.02-2.27-2.27-2.27h-6.8c-1.25 0-2.27 1.02-2.27 2.27v13.61c0 1.25 1.02 2.27 2.27 2.27h6.8c1.25 0 2.27-1.02 2.27-2.27z" fill="none" stroke="#231f20" stroke-width=".4"/>
<path d="m365.85 615.12-3.86 2.23v-1h-2.94v-2.46h2.94v-1z" fill="#fff"/>
<path class="s6" d="m365.85 615.12-3.86 2.23v-1h-2.94v-2.46h2.94v-1z" fill="none" stroke="#231f20" stroke-linecap="round" stroke-linejoin="round" stroke-width=".4"/>
</g>
</g>
</g>
</g>
<g transform="matrix(.45664 0 0 -.45664 -383.74 282.47)">
<g clip-path="url(#t)">
<g clip-path="url(#s)">
<g clip-path="url(#r)">
<path d="m404.93 615.12c0-3.76-3.05-6.8-6.8-6.8-3.76 0-6.8 3.05-6.8 6.8 0 3.76 3.05 6.8 6.8 6.8 3.76 0 6.8-3.05 6.8-6.8" fill="#fff200"/>
<path d="m398.13 611.72c-1.88 0-3.4 1.52-3.4 3.4s1.52 3.4 3.4 3.4" fill="#fff"/>
<path class="s5" d="m398.13 611.72c-1.88 0-3.4 1.52-3.4 3.4s1.52 3.4 3.4 3.4" fill="none" stroke="#231f20" stroke-linejoin="round" stroke-width="1.2"/>
<path d="m398.13 618.52c1.88 0 3.4-1.52 3.4-3.4s-1.52-3.4-3.4-3.4" fill="#fff"/>
<path class="s7" d="m398.13 618.52c1.88 0 3.4-1.52 3.4-3.4s-1.52-3.4-3.4-3.4" fill="none" stroke="#ed1c24" stroke-linejoin="round" stroke-width="1.2"/>
<path d="m393.35 608.32c0-1.25-1.01-2.27-2.27-2.27h-6.8c-1.25 0-2.27 1.02-2.27 2.27v13.61c0 1.25 1.02 2.27 2.27 2.27h6.8c1.25 0 2.27-1.01 2.27-2.27z" fill="#fff200"/>
<path class="s8" d="m393.35 608.32c0-1.25-1.01-2.27-2.27-2.27h-6.8c-1.25 0-2.27 1.02-2.27 2.27v13.61c0 1.25 1.02 2.27 2.27 2.27h6.8c1.25 0 2.27-1.01 2.27-2.27z" fill="none" stroke="#231f20" stroke-width=".4"/>
<path d="m398.45 615.12-3.86 2.23v-1h-2.94v-2.46h2.94v-1z" fill="#fff"/>
<path class="s6" d="m398.45 615.12-3.86 2.23v-1h-2.94v-2.46h2.94v-1z" fill="none" stroke="#231f20" stroke-linecap="round" stroke-linejoin="round" stroke-width=".4"/>
</g>
</g>
</g>
</g>
<g transform="matrix(.43483 0 0 -.43483 -224.43 119.07)">
<g clip-path="url(#aj)">
<g clip-path="url(#ai)">
<g clip-path="url(#ah)">
<g transform="translate(66.214 191.83)">
<path d="m0 0c0 3.76-3.05 6.8-6.8 6.8v-6.8z" fill="#daa566"/>
</g>
<g transform="translate(59.411 198.64)">
<path d="m0 0c-3.76 0-6.8-3.05-6.8-6.8h6.8z" fill="#80d6f7"/>
</g>
<g transform="translate(59.411 191.83)">
<path d="m0 0v-6.8c3.76 0 6.8 3.05 6.8 6.8z" fill="#fff200"/>
</g>
<g transform="translate(52.608 191.83)">
<path d="m0 0c0-3.76 3.05-6.8 6.8-6.8v6.8z" fill="#80cc28"/>
</g>
<g transform="translate(59.411 188.43)">
<path d="m0 0c-1.88 0-3.4 1.52-3.4 3.4s1.52 3.4 3.4 3.4" fill="#fff"/>
</g>
<g transform="translate(59.411 188.43)">
<path class="s5" d="m0 0c-1.88 0-3.4 1.52-3.4 3.4s1.52 3.4 3.4 3.4" fill="none" stroke="#231f20" stroke-linejoin="round" stroke-width="1.2"/>
</g>
<g transform="translate(54.631 191.83)">
<path d="m0 0v6.8c0 1.26-1.01 2.27-2.27 2.27h-3.4v-9.07z" fill="#daa566"/>
</g>
<g transform="translate(48.961 200.9)">
<path d="m0 0h-3.4c-1.25 0-2.27-1.01-2.27-2.27v-6.8h5.67z" fill="#80d6f7"/>
</g>
<g transform="translate(43.292 191.83)">
<path d="m0 0v-6.8c0-1.25 1.01-2.27 2.27-2.27h3.4v9.07z" fill="#80cc28"/>
</g>
<g transform="translate(48.961 191.83)">
<path d="m0 0v-9.07h3.4c1.25 0 2.27 1.02 2.27 2.27v6.8z" fill="#fff200"/>
</g>
<g transform="translate(54.631 185.03)">
<path class="s6" d="m0 0c0-1.25-1.01-2.27-2.27-2.27h-6.8c-1.25 0-2.27 1.02-2.27 2.27v13.61c0 1.25 1.01 2.27 2.27 2.27h6.8c1.26-0.01 2.27-1.02 2.27-2.27z" fill="none" stroke="#231f20" stroke-linecap="round" stroke-linejoin="round" stroke-width=".4"/>
</g>
<g transform="translate(59.411 195.24)">
<path d="m0 0c1.88 0 3.4-1.52 3.4-3.4s-1.52-3.4-3.4-3.4" fill="#fff"/>
</g>
<g transform="translate(59.411 195.24)">
<path class="s7" d="m0 0c1.88 0 3.4-1.52 3.4-3.4s-1.52-3.4-3.4-3.4" fill="none" stroke="#ed1c24" stroke-linejoin="round" stroke-width="1.2"/>
</g>
<g transform="translate(59.734 191.83)">
<path d="m0 0-3.86 2.23v-1h-2.94v-2.46h2.94v-1z" fill="#fff"/>
</g>
<g transform="translate(59.734 191.83)">
<path class="s6" d="m0 0-3.86 2.23v-1h-2.94v-2.46h2.94v-1z" fill="none" stroke="#231f20" stroke-linecap="round" stroke-linejoin="round" stroke-width=".4"/>
</g>
<g transform="translate(54.63 205.44)">
<path d="m0 0c0-1.25-1.02-2.27-2.27-2.27h-6.8c-1.25 0-2.27 1.02-2.27 2.27v13.61c0 1.25 1.02 2.27 2.27 2.27h6.8c1.25-0.01 2.27-1.02 2.27-2.27z" fill="#80d6f7"/>
</g>
<g transform="translate(54.63 205.44)">
<path class="s8" d="m0 0c0-1.25-1.02-2.27-2.27-2.27h-6.8c-1.25 0-2.27 1.02-2.27 2.27v13.61c0 1.25 1.02 2.27 2.27 2.27h6.8c1.25-0.01 2.27-1.02 2.27-2.27z" fill="none" stroke="#231f20" stroke-width=".4"/>
</g>
<g transform="translate(44.992 186.73)">
<path d="m0 0c0-0.94-0.76-1.7-1.7-1.7h-5.1c-0.94 0-1.7 0.76-1.7 1.7v10.2c0 0.94 0.76 1.7 1.7 1.7h5.1c0.94 0 1.7-0.76 1.7-1.7z" fill="#fff"/>
</g>
<g transform="translate(44.992 186.73)">
<path class="s6" d="m0 0c0-0.94-0.76-1.7-1.7-1.7h-5.1c-0.94 0-1.7 0.76-1.7 1.7v10.2c0 0.94 0.76 1.7 1.7 1.7h5.1c0.94 0 1.7-0.76 1.7-1.7z" fill="none" stroke="#231f20" stroke-linecap="round" stroke-linejoin="round" stroke-width=".4"/>
</g>
<g transform="translate(46.19 193.78)">
<path d="m0 0c0-0.47-0.38-0.85-0.85-0.85h-1.1c-0.47 0-0.85 0.38-0.85 0.85s0.38 0.85 0.85 0.85h1.1c0.47 0 0.85-0.38 0.85-0.85" fill="#e9e9e9"/>
</g>
<g transform="translate(46.19 193.78)">
<path class="s6" d="m0 0c0-0.47-0.38-0.85-0.85-0.85h-1.1c-0.47 0-0.85 0.38-0.85 0.85s0.38 0.85 0.85 0.85h1.1c0.47 0 0.85-0.38 0.85-0.85z" fill="none" stroke="#231f20" stroke-linecap="round" stroke-linejoin="round" stroke-width=".4"/>
</g>
<g transform="translate(46.19 192.08)">
<path d="m0 0c0-0.47-0.38-0.85-0.85-0.85h-1.1c-0.47 0-0.85 0.38-0.85 0.85s0.38 0.85 0.85 0.85h1.1c0.47 0 0.85-0.38 0.85-0.85" fill="#e9e9e9"/>
</g>
<g transform="translate(46.19 192.08)">
<path class="s6" d="m0 0c0-0.47-0.38-0.85-0.85-0.85h-1.1c-0.47 0-0.85 0.38-0.85 0.85s0.38 0.85 0.85 0.85h1.1c0.47 0 0.85-0.38 0.85-0.85z" fill="none" stroke="#231f20" stroke-linecap="round" stroke-linejoin="round" stroke-width=".4"/>
</g>
<g transform="translate(46.19 190.38)">
<path d="m0 0c0-0.47-0.38-0.85-0.85-0.85h-1.1c-0.47 0-0.85 0.38-0.85 0.85s0.38 0.85 0.85 0.85h1.1c0.47 0 0.85-0.38 0.85-0.85" fill="#e9e9e9"/>
</g>
<g transform="translate(46.19 190.38)">
<path class="s6" d="m0 0c0-0.47-0.38-0.85-0.85-0.85h-1.1c-0.47 0-0.85 0.38-0.85 0.85s0.38 0.85 0.85 0.85h1.1c0.47 0 0.85-0.38 0.85-0.85z" fill="none" stroke="#231f20" stroke-linecap="round" stroke-linejoin="round" stroke-width=".4"/>
</g>
<g transform="translate(46.19 188.68)">
<path d="m0 0c0-0.47-0.38-0.85-0.85-0.85h-1.1c-0.47 0-0.85 0.38-0.85 0.85s0.38 0.85 0.85 0.85h1.1c0.47 0 0.85-0.38 0.85-0.85" fill="#e9e9e9"/>
</g>
<g transform="translate(46.19 188.68)">
<path class="s6" d="m0 0c0-0.47-0.38-0.85-0.85-0.85h-1.1c-0.47 0-0.85 0.38-0.85 0.85s0.38 0.85 0.85 0.85h1.1c0.47 0 0.85-0.38 0.85-0.85z" fill="none" stroke="#231f20" stroke-linecap="round" stroke-linejoin="round" stroke-width=".4"/>
</g>
<g transform="translate(37.715 197.49)">
<path class="s10" d="m0 0 6.05-11.31" fill="none" stroke="#ed1c24" stroke-linecap="round" stroke-linejoin="round" stroke-width="1.2"/>
</g>
<g transform="translate(43.764 197.49)">
<path class="s10" d="m0 0-6.05-11.31" fill="none" stroke="#ed1c24" stroke-linecap="round" stroke-linejoin="round" stroke-width="1.2"/>
</g>
<g transform="translate(38.189 196.34)">
<path d="m0 0h-1.7c-0.94 0-1.7-0.76-1.7-1.7v-5.6c0-0.94 0.76-1.7 1.7-1.7v7.3h1.7c0.47 0 0.85 0.38 0.85 0.85s-0.38 0.85-0.85 0.85" fill="#e9e9e9"/>
</g>
<g transform="translate(38.189 196.34)">
<path class="s6" d="m0 0h-1.7c-0.94 0-1.7-0.76-1.7-1.7v-5.6c0-0.94 0.76-1.7 1.7-1.7v7.3h1.7c0.47 0 0.85 0.38 0.85 0.85s-0.38 0.85-0.85 0.85z" fill="none" stroke="#231f20" stroke-linecap="round" stroke-linejoin="round" stroke-width=".4"/>
</g>
</g>
</g>
</g>
</g>
<g transform="matrix(.45663 0 0 -.45663 -245.99 104.88)">
<g clip-path="url(#ak)">
<g transform="translate(91.702 200.86)">
<path d="m0 0c0-1.25-1.01-2.27-2.27-2.27h-6.8c-1.25 0-2.27 1.02-2.27 2.27v13.61c0 1.25 1.01 2.27 2.27 2.27h6.8c1.26-0.01 2.27-1.02 2.27-2.27z" fill="#fff200"/>
</g>
<g transform="translate(91.702 200.86)">
<path class="s8" d="m0 0c0-1.25-1.01-2.27-2.27-2.27h-6.8c-1.25 0-2.27 1.02-2.27 2.27v13.61c0 1.25 1.01 2.27 2.27 2.27h6.8c1.26-0.01 2.27-1.02 2.27-2.27z" fill="none" stroke="#231f20" stroke-width=".4"/>
</g>
<g transform="translate(98.505 202.56)">
<path d="m0 0c0-0.94-0.76-1.7-1.7-1.7h-5.1c-0.94 0-1.7 0.76-1.7 1.7v10.2c0 0.94 0.76 1.7 1.7 1.7h5.1c0.94 0.01 1.7-0.76 1.7-1.7z" fill="#fff"/>
</g>
<g transform="translate(98.505 202.56)">
<path class="s6" d="m0 0c0-0.94-0.76-1.7-1.7-1.7h-5.1c-0.94 0-1.7 0.76-1.7 1.7v10.2c0 0.94 0.76 1.7 1.7 1.7h5.1c0.94 0.01 1.7-0.76 1.7-1.7z" fill="none" stroke="#231f20" stroke-linecap="round" stroke-linejoin="round" stroke-width=".4"/>
</g>
<g transform="translate(99.704 209.61)">
<path d="m0 0c0-0.47-0.38-0.85-0.85-0.85h-1.1c-0.47 0-0.85 0.38-0.85 0.85s0.38 0.85 0.85 0.85h1.1c0.47 0 0.85-0.38 0.85-0.85" fill="#e9e9e9"/>
</g>
<g transform="translate(99.704 209.61)">
<path class="s6" d="m0 0c0-0.47-0.38-0.85-0.85-0.85h-1.1c-0.47 0-0.85 0.38-0.85 0.85s0.38 0.85 0.85 0.85h1.1c0.47 0 0.85-0.38 0.85-0.85z" fill="none" stroke="#231f20" stroke-linecap="round" stroke-linejoin="round" stroke-width=".4"/>
</g>
<g transform="translate(99.704 207.91)">
<path d="m0 0c0-0.47-0.38-0.85-0.85-0.85h-1.1c-0.47 0-0.85 0.38-0.85 0.85s0.38 0.85 0.85 0.85h1.1c0.47 0 0.85-0.38 0.85-0.85" fill="#e9e9e9"/>
</g>
<g transform="translate(99.704 207.91)">
<path class="s6" d="m0 0c0-0.47-0.38-0.85-0.85-0.85h-1.1c-0.47 0-0.85 0.38-0.85 0.85s0.38 0.85 0.85 0.85h1.1c0.47 0 0.85-0.38 0.85-0.85z" fill="none" stroke="#231f20" stroke-linecap="round" stroke-linejoin="round" stroke-width=".4"/>
</g>
<g transform="translate(99.704 206.21)">
<path d="m0 0c0-0.47-0.38-0.85-0.85-0.85h-1.1c-0.47 0-0.85 0.38-0.85 0.85s0.38 0.85 0.85 0.85h1.1c0.47 0 0.85-0.38 0.85-0.85" fill="#e9e9e9"/>
</g>
<g transform="translate(99.704 206.21)">
<path class="s6" d="m0 0c0-0.47-0.38-0.85-0.85-0.85h-1.1c-0.47 0-0.85 0.38-0.85 0.85s0.38 0.85 0.85 0.85h1.1c0.47 0 0.85-0.38 0.85-0.85z" fill="none" stroke="#231f20" stroke-linecap="round" stroke-linejoin="round" stroke-width=".4"/>
</g>
<g transform="translate(99.704 204.51)">
<path d="m0 0c0-0.47-0.38-0.85-0.85-0.85h-1.1c-0.47 0-0.85 0.38-0.85 0.85s0.38 0.85 0.85 0.85h1.1c0.47 0 0.85-0.38 0.85-0.85" fill="#e9e9e9"/>
</g>
<g transform="translate(99.704 204.51)">
<path class="s6" d="m0 0c0-0.47-0.38-0.85-0.85-0.85h-1.1c-0.47 0-0.85 0.38-0.85 0.85s0.38 0.85 0.85 0.85h1.1c0.47 0 0.85-0.38 0.85-0.85z" fill="none" stroke="#231f20" stroke-linecap="round" stroke-linejoin="round" stroke-width=".4"/>
</g>
<g transform="translate(91.229 213.32)">
<path class="s10" d="m0 0 6.05-11.31" fill="none" stroke="#ed1c24" stroke-linecap="round" stroke-linejoin="round" stroke-width="1.2"/>
</g>
<g transform="translate(97.277 213.32)">
<path class="s10" d="m0 0-6.05-11.31" fill="none" stroke="#ed1c24" stroke-linecap="round" stroke-linejoin="round" stroke-width="1.2"/>
</g>
<g transform="translate(91.702 212.16)">
<path d="m0 0h-1.7c-0.94 0-1.7-0.76-1.7-1.7v-5.6c0-0.94 0.76-1.7 1.7-1.7v7.3h1.7c0.47 0 0.85 0.38 0.85 0.85s-0.38 0.85-0.85 0.85" fill="#e9e9e9"/>
</g>
<g transform="translate(91.702 212.16)">
<path class="s6" d="m0 0h-1.7c-0.94 0-1.7-0.76-1.7-1.7v-5.6c0-0.94 0.76-1.7 1.7-1.7v7.3h1.7c0.47 0 0.85 0.38 0.85 0.85s-0.38 0.85-0.85 0.85z" fill="none" stroke="#231f20" stroke-linecap="round" stroke-linejoin="round" stroke-width=".4"/>
</g>
</g>
</g>
<g transform="matrix(.45662 0 0 -.45662 -242.81 152.04)">
<g clip-path="url(#am)">
<g transform="translate(104.82 292.42)">
<path d="m0 0c0-3.76-3.04-6.8-6.8-6.8s-6.8 3.05-6.8 6.8c0 3.76 3.05 6.8 6.8 6.8 3.76 0 6.8-3.04 6.8-6.8" fill="#fff200"/>
</g>
<g transform="translate(98.018 289.02)">
<path class="s11" d="m0 0c-1.88 0-3.4 1.52-3.4 3.4s1.52 3.4 3.4 3.4" fill="#fff" stroke="#231f20" stroke-linejoin="round" stroke-width="1.2"/>
</g>
<g transform="translate(98.018 295.82)">
<path class="s12" d="m0 0c1.88 0 3.4-1.52 3.4-3.4s-1.52-3.4-3.4-3.4" fill="#fff" stroke="#ed1c24" stroke-linejoin="round" stroke-width="1.2"/>
</g>
<g transform="translate(93.236 285.62)">
<path d="m0 0c0-1.25-1.01-2.27-2.27-2.27h-6.8c-1.25 0-2.27 1.02-2.27 2.27v13.61c0 1.25 1.02 2.27 2.27 2.27h6.8c1.26-0.01 2.27-1.02 2.27-2.27z" fill="#fff200"/>
</g>
<g transform="translate(93.236 285.62)">
<path class="s8" d="m0 0c0-1.25-1.01-2.27-2.27-2.27h-6.8c-1.25 0-2.27 1.02-2.27 2.27v13.61c0 1.25 1.02 2.27 2.27 2.27h6.8c1.26-0.01 2.27-1.02 2.27-2.27z" fill="none" stroke="#231f20" stroke-width=".4"/>
</g>
<g transform="translate(98.339 292.42)">
<path d="m0 0-3.86 2.23v-1h-2.94v-2.46h2.94v-1z" fill="#fff"/>
</g>
<g transform="translate(98.339 292.42)">
<path class="s6" d="m0 0-3.86 2.23v-1h-2.94v-2.46h2.94v-1z" fill="none" stroke="#231f20" stroke-linecap="round" stroke-linejoin="round" stroke-width=".4"/>
</g>
<g transform="translate(83.598 287.32)">
<path d="m0 0c0-0.94-0.76-1.7-1.7-1.7h-5.1c-0.94 0-1.7 0.76-1.7 1.7v10.2c0 0.94 0.76 1.7 1.7 1.7h5.1c0.94 0.01 1.7-0.76 1.7-1.7z" fill="#fff"/>
</g>
<g transform="translate(83.598 287.32)">
<path class="s6" d="m0 0c0-0.94-0.76-1.7-1.7-1.7h-5.1c-0.94 0-1.7 0.76-1.7 1.7v10.2c0 0.94 0.76 1.7 1.7 1.7h5.1c0.94 0.01 1.7-0.76 1.7-1.7z" fill="none" stroke="#231f20" stroke-linecap="round" stroke-linejoin="round" stroke-width=".4"/>
</g>
<g transform="translate(84.797 294.37)">
<path d="m0 0c0-0.47-0.38-0.85-0.85-0.85h-1.1c-0.47 0-0.85 0.38-0.85 0.85s0.38 0.85 0.85 0.85h1.1c0.47 0 0.85-0.38 0.85-0.85" fill="#e9e9e9"/>
</g>
<g transform="translate(84.797 294.37)">
<path class="s6" d="m0 0c0-0.47-0.38-0.85-0.85-0.85h-1.1c-0.47 0-0.85 0.38-0.85 0.85s0.38 0.85 0.85 0.85h1.1c0.47 0 0.85-0.38 0.85-0.85z" fill="none" stroke="#231f20" stroke-linecap="round" stroke-linejoin="round" stroke-width=".4"/>
</g>
<g transform="translate(84.797 292.67)">
<path d="m0 0c0-0.47-0.38-0.85-0.85-0.85h-1.1c-0.47 0-0.85 0.38-0.85 0.85s0.38 0.85 0.85 0.85h1.1c0.47 0 0.85-0.38 0.85-0.85" fill="#e9e9e9"/>
</g>
<g transform="translate(84.797 292.67)">
<path class="s6" d="m0 0c0-0.47-0.38-0.85-0.85-0.85h-1.1c-0.47 0-0.85 0.38-0.85 0.85s0.38 0.85 0.85 0.85h1.1c0.47 0 0.85-0.38 0.85-0.85z" fill="none" stroke="#231f20" stroke-linecap="round" stroke-linejoin="round" stroke-width=".4"/>
</g>
<g transform="translate(84.797 290.97)">
<path d="m0 0c0-0.47-0.38-0.85-0.85-0.85h-1.1c-0.47 0-0.85 0.38-0.85 0.85s0.38 0.85 0.85 0.85h1.1c0.47 0 0.85-0.38 0.85-0.85" fill="#e9e9e9"/>
</g>
<g transform="translate(84.797 290.97)">
<path class="s6" d="m0 0c0-0.47-0.38-0.85-0.85-0.85h-1.1c-0.47 0-0.85 0.38-0.85 0.85s0.38 0.85 0.85 0.85h1.1c0.47 0 0.85-0.38 0.85-0.85z" fill="none" stroke="#231f20" stroke-linecap="round" stroke-linejoin="round" stroke-width=".4"/>
</g>
<g transform="translate(84.797 289.27)">
<path d="m0 0c0-0.47-0.38-0.85-0.85-0.85h-1.1c-0.47 0-0.85 0.38-0.85 0.85s0.38 0.85 0.85 0.85h1.1c0.47 0 0.85-0.38 0.85-0.85" fill="#e9e9e9"/>
</g>
<g transform="translate(84.797 289.27)">
<path class="s6" d="m0 0c0-0.47-0.38-0.85-0.85-0.85h-1.1c-0.47 0-0.85 0.38-0.85 0.85s0.38 0.85 0.85 0.85h1.1c0.47 0 0.85-0.38 0.85-0.85z" fill="none" stroke="#231f20" stroke-linecap="round" stroke-linejoin="round" stroke-width=".4"/>
</g>
<g transform="translate(76.322 298.07)">
<path class="s10" d="m0 0 6.05-11.31" fill="none" stroke="#ed1c24" stroke-linecap="round" stroke-linejoin="round" stroke-width="1.2"/>
</g>
<g transform="translate(82.37 298.07)">
<path class="s10" d="m0 0-6.05-11.31" fill="none" stroke="#ed1c24" stroke-linecap="round" stroke-linejoin="round" stroke-width="1.2"/>
</g>
<g transform="translate(76.796 296.92)">
<path d="m0 0h-1.7c-0.94 0-1.7-0.76-1.7-1.7v-5.6c0-0.94 0.76-1.7 1.7-1.7v7.3h1.7c0.47 0 0.85 0.38 0.85 0.85s-0.38 0.85-0.85 0.85" fill="#e9e9e9"/>
</g>
<g transform="translate(76.796 296.92)">
<path class="s6" d="m0 0h-1.7c-0.94 0-1.7-0.76-1.7-1.7v-5.6c0-0.94 0.76-1.7 1.7-1.7v7.3h1.7c0.47 0 0.85 0.38 0.85 0.85s-0.38 0.85-0.85 0.85z" fill="none" stroke="#231f20" stroke-linecap="round" stroke-linejoin="round" stroke-width=".4"/>
</g>
</g>
</g>
<g transform="matrix(.45659 0 0 -.45659 -242.81 174.05)">
<g clip-path="url(#an)">
<g transform="translate(104.82 322.09)">
<path d="m0 0c0-3.76-3.05-6.8-6.8-6.8-3.76 0-6.8 3.05-6.8 6.8 0 3.76 3.05 6.8 6.8 6.8s6.8-3.04 6.8-6.8" fill="#80cc28"/>
</g>
<g transform="translate(98.017 318.69)">
<path class="s11" d="m0 0c-1.88 0-3.4 1.52-3.4 3.4s1.52 3.4 3.4 3.4" fill="#fff" stroke="#231f20" stroke-linejoin="round" stroke-width="1.2"/>
</g>
<g transform="translate(98.017 325.49)">
<path class="s12" d="m0 0c1.88 0 3.4-1.52 3.4-3.4s-1.52-3.4-3.4-3.4" fill="#fff" stroke="#ed1c24" stroke-linejoin="round" stroke-width="1.2"/>
</g>
<g transform="translate(93.236 315.28)">
<path d="m0 0c0-1.25-1.01-2.27-2.27-2.27h-6.8c-1.25 0-2.27 1.02-2.27 2.27v13.61c0 1.25 1.01 2.27 2.27 2.27h6.8c1.26-0.01 2.27-1.02 2.27-2.27z" fill="#80cc28"/>
</g>
<g transform="translate(93.236 315.28)">
<path class="s8" d="m0 0c0-1.25-1.01-2.27-2.27-2.27h-6.8c-1.25 0-2.27 1.02-2.27 2.27v13.61c0 1.25 1.01 2.27 2.27 2.27h6.8c1.26-0.01 2.27-1.02 2.27-2.27z" fill="none" stroke="#231f20" stroke-width=".4"/>
</g>
<g transform="translate(98.339 322.09)">
<path d="m0 0-3.86 2.23v-1h-2.94v-2.46h2.94v-1z" fill="#fff"/>
</g>
<g transform="translate(98.339 322.09)">
<path class="s6" d="m0 0-3.86 2.23v-1h-2.94v-2.46h2.94v-1z" fill="none" stroke="#231f20" stroke-linecap="round" stroke-linejoin="round" stroke-width=".4"/>
</g>
<g transform="translate(83.598 316.98)">
<path d="m0 0c0-0.94-0.76-1.7-1.7-1.7h-5.1c-0.94 0-1.7 0.76-1.7 1.7v10.2c0 0.94 0.76 1.7 1.7 1.7h5.1c0.94 0.01 1.7-0.76 1.7-1.7z" fill="#fff"/>
</g>
<g transform="translate(83.598 316.98)">
<path class="s6" d="m0 0c0-0.94-0.76-1.7-1.7-1.7h-5.1c-0.94 0-1.7 0.76-1.7 1.7v10.2c0 0.94 0.76 1.7 1.7 1.7h5.1c0.94 0.01 1.7-0.76 1.7-1.7z" fill="none" stroke="#231f20" stroke-linecap="round" stroke-linejoin="round" stroke-width=".4"/>
</g>
<g transform="translate(84.797 324.04)">
<path d="m0 0c0-0.47-0.38-0.85-0.85-0.85h-1.1c-0.47 0-0.85 0.38-0.85 0.85s0.38 0.85 0.85 0.85h1.1c0.47 0 0.85-0.38 0.85-0.85" fill="#e9e9e9"/>
</g>
<g transform="translate(84.797 324.04)">
<path class="s6" d="m0 0c0-0.47-0.38-0.85-0.85-0.85h-1.1c-0.47 0-0.85 0.38-0.85 0.85s0.38 0.85 0.85 0.85h1.1c0.47 0 0.85-0.38 0.85-0.85z" fill="none" stroke="#231f20" stroke-linecap="round" stroke-linejoin="round" stroke-width=".4"/>
</g>
<g transform="translate(84.797 322.34)">
<path d="m0 0c0-0.47-0.38-0.85-0.85-0.85h-1.1c-0.47 0-0.85 0.38-0.85 0.85s0.38 0.85 0.85 0.85h1.1c0.47 0 0.85-0.38 0.85-0.85" fill="#e9e9e9"/>
</g>
<g transform="translate(84.797 322.34)">
<path class="s6" d="m0 0c0-0.47-0.38-0.85-0.85-0.85h-1.1c-0.47 0-0.85 0.38-0.85 0.85s0.38 0.85 0.85 0.85h1.1c0.47 0 0.85-0.38 0.85-0.85z" fill="none" stroke="#231f20" stroke-linecap="round" stroke-linejoin="round" stroke-width=".4"/>
</g>
<g transform="translate(84.797 320.63)">
<path d="m0 0c0-0.47-0.38-0.85-0.85-0.85h-1.1c-0.47 0-0.85 0.38-0.85 0.85s0.38 0.85 0.85 0.85h1.1c0.47 0 0.85-0.38 0.85-0.85" fill="#e9e9e9"/>
</g>
<g transform="translate(84.797 320.63)">
<path class="s6" d="m0 0c0-0.47-0.38-0.85-0.85-0.85h-1.1c-0.47 0-0.85 0.38-0.85 0.85s0.38 0.85 0.85 0.85h1.1c0.47 0 0.85-0.38 0.85-0.85z" fill="none" stroke="#231f20" stroke-linecap="round" stroke-linejoin="round" stroke-width=".4"/>
</g>
<g transform="translate(84.797 318.93)">
<path d="m0 0c0-0.47-0.38-0.85-0.85-0.85h-1.1c-0.47 0-0.85 0.38-0.85 0.85s0.38 0.85 0.85 0.85h1.1c0.47 0 0.85-0.38 0.85-0.85" fill="#e9e9e9"/>
</g>
<g transform="translate(84.797 318.93)">
<path class="s6" d="m0 0c0-0.47-0.38-0.85-0.85-0.85h-1.1c-0.47 0-0.85 0.38-0.85 0.85s0.38 0.85 0.85 0.85h1.1c0.47 0 0.85-0.38 0.85-0.85z" fill="none" stroke="#231f20" stroke-linecap="round" stroke-linejoin="round" stroke-width=".4"/>
</g>
<g transform="translate(76.322 327.74)">
<path class="s10" d="m0 0 6.05-11.31" fill="none" stroke="#ed1c24" stroke-linecap="round" stroke-linejoin="round" stroke-width="1.2"/>
</g>
<g transform="translate(82.37 327.74)">
<path class="s10" d="m0 0-6.05-11.31" fill="none" stroke="#ed1c24" stroke-linecap="round" stroke-linejoin="round" stroke-width="1.2"/>
</g>
<g transform="translate(76.795 326.59)">
<path d="m0 0h-1.7c-0.94 0-1.7-0.76-1.7-1.7v-5.6c0-0.94 0.76-1.7 1.7-1.7v7.3h1.7c0.47 0 0.85 0.38 0.85 0.85s-0.38 0.85-0.85 0.85" fill="#e9e9e9"/>
</g>
<g transform="translate(76.795 326.59)">
<path class="s6" d="m0 0h-1.7c-0.94 0-1.7-0.76-1.7-1.7v-5.6c0-0.94 0.76-1.7 1.7-1.7v7.3h1.7c0.47 0 0.85 0.38 0.85 0.85s-0.38 0.85-0.85 0.85z" fill="none" stroke="#231f20" stroke-linecap="round" stroke-linejoin="round" stroke-width=".4"/>
</g>
</g>
</g>
<g transform="matrix(.43773 0 0 -.43773 -306.78 86.923)">
<g clip-path="url(#ag)">
<g transform="translate(241.24 98.244)">
<path d="m0 0c0-5.01-4.06-9.07-9.07-9.07s-9.07 4.06-9.07 9.07 4.06 9.07 9.07 9.07 9.07-4.06 9.07-9.07" fill="#fff"/>
</g>
<g transform="translate(241.24 98.244)">
<path d="m0 0c0-5.01-4.06-9.07-9.07-9.07s-9.07 4.06-9.07 9.07 4.06 9.07 9.07 9.07 9.07-4.06 9.07-9.07z" fill="none" stroke="#231f20" stroke-linecap="round" stroke-linejoin="round" stroke-width="1.2"/>
</g>
<g transform="translate(232.17 107.31)">
<path d="m0 0c5.01 0 9.07-4.06 9.07-9.07s-4.06-9.07-9.07-9.07" fill="none" stroke="#ed1c24" stroke-width="1.2"/>
</g>
<g transform="translate(244.81 94.637)">
<path d="m0 0c-0.09 1.19-0.38 2.42-0.86 3.63 1.3 0.11 2.69 0.01 4.14-0.34-4.79 4.23-11.17 4.92-16.27 2.76-0.13 0.37-0.25 0.73-0.38 1.1-2.01-1.5-3.54-3.41-4.54-5.5 2.09 1 4.19 1.29 6.04 1.11-0.12 0.37-0.25 0.73-0.38 1.1 4.58 1.14 9.33-0.38 12.25-3.86" fill="#564ca9"/>
</g>
</g>
</g>
</g>
<g transform="matrix(.45179 0 0 -.45179 -12.98 273.79)">
<g clip-path="url(#m)">
<g clip-path="url(#k)">
<path d="m36.668 414.6c0 1.878-1.523 3.401-3.401 3.401-1.879 0-3.402-1.523-3.402-3.401 0-1.879 1.523-3.402 3.402-3.402 1.878 0 3.401 1.523 3.401 3.402" fill="#daa566"/>
<path d="m36.668 414.6c0 1.878-1.523 3.401-3.401 3.401-1.879 0-3.402-1.523-3.402-3.401 0-1.879 1.523-3.402 3.402-3.402 1.878 0 3.401 1.523 3.401 3.402z" fill="none" stroke="#231f20" stroke-width="1.2"/>
<path d="m33.267 411.19c1.878 0 3.401 1.523 3.401 3.402 0 1.878-1.523 3.401-3.401 3.401" fill="none" stroke="#ed1c24" stroke-width="1.2"/>
<path d="m37.802 404.39c0-2.506-2.031-4.538-4.535-4.538-2.506 0-4.536 2.032-4.536 4.538 0 2.505 2.03 4.536 4.536 4.536 2.504 0 4.535-2.031 4.535-4.536" fill="#daa566"/>
<path d="m35.875 404.39c0-1.442-1.168-2.609-2.607-2.609-1.442 0-2.608 1.167-2.608 2.609 0 1.439 1.166 2.608 2.608 2.608 1.439 0 2.607-1.169 2.607-2.608" fill="#fff"/>
<path d="m35.875 404.39c0-1.442-1.168-2.609-2.607-2.609-1.442 0-2.608 1.167-2.608 2.609 0 1.439 1.166 2.608 2.608 2.608 1.439 0 2.607-1.169 2.607-2.608z" fill="none" stroke="#231f20" stroke-width="1.2"/>
<path d="m33.268 407c1.439 0 2.607-1.169 2.607-2.608 0-1.442-1.168-2.609-2.607-2.609" fill="none" stroke="#ed1c24" stroke-width="1.2"/>
<path d="m54.02 403.82c0-0.939-0.761-1.701-1.702-1.701h-5.101c-0.939 0-1.7 0.762-1.7 1.701v10.205c0 0.939 0.761 1.7 1.7 1.7h5.101c0.941 0 1.702-0.761 1.702-1.7z" fill="#fff"/>
<path d="m54.02 403.82c0-0.939-0.761-1.701-1.702-1.701h-5.101c-0.939 0-1.7 0.762-1.7 1.701v10.205c0 0.939 0.761 1.7 1.7 1.7h5.101c0.941 0 1.702-0.761 1.702-1.7z" fill="none" stroke="#231f20" stroke-linecap="round" stroke-linejoin="round" stroke-width=".4"/>
<path d="m55.22 410.88c0-0.47-0.381-0.85-0.852-0.85h-1.1c-0.47 0-0.851 0.38-0.851 0.85 0 0.469 0.381 0.85 0.851 0.85h1.1c0.471 0 0.852-0.381 0.852-0.85" fill="#e9e9e9"/>
<path d="m55.22 410.88c0-0.47-0.381-0.85-0.852-0.85h-1.1c-0.47 0-0.851 0.38-0.851 0.85 0 0.469 0.381 0.85 0.851 0.85h1.1c0.471 0 0.852-0.381 0.852-0.85z" fill="none" stroke="#231f20" stroke-linecap="round" stroke-linejoin="round" stroke-width=".4"/>
<path d="m55.22 409.18c0-0.469-0.381-0.85-0.852-0.85h-1.1c-0.47 0-0.851 0.381-0.851 0.85 0 0.47 0.381 0.851 0.851 0.851h1.1c0.471 0 0.852-0.381 0.852-0.851" fill="#e9e9e9"/>
<path d="m55.22 409.18c0-0.469-0.381-0.85-0.852-0.85h-1.1c-0.47 0-0.851 0.381-0.851 0.85 0 0.47 0.381 0.851 0.851 0.851h1.1c0.471 0 0.852-0.381 0.852-0.851z" fill="none" stroke="#231f20" stroke-linecap="round" stroke-linejoin="round" stroke-width=".4"/>
<path d="m55.22 407.48c0-0.471-0.381-0.85-0.852-0.85h-1.1c-0.47 0-0.851 0.379-0.851 0.85 0 0.469 0.381 0.85 0.851 0.85h1.1c0.471 0 0.852-0.381 0.852-0.85" fill="#e9e9e9"/>
<path d="m55.22 407.48c0-0.471-0.381-0.85-0.852-0.85h-1.1c-0.47 0-0.851 0.379-0.851 0.85 0 0.469 0.381 0.85 0.851 0.85h1.1c0.471 0 0.852-0.381 0.852-0.85z" fill="none" stroke="#231f20" stroke-linecap="round" stroke-linejoin="round" stroke-width=".4"/>
<path d="m55.22 405.77c0-0.469-0.381-0.85-0.852-0.85h-1.1c-0.47 0-0.851 0.381-0.851 0.85 0 0.471 0.381 0.852 0.851 0.852h1.1c0.471 0 0.852-0.381 0.852-0.852" fill="#e9e9e9"/>
<path d="m55.22 405.77c0-0.469-0.381-0.85-0.852-0.85h-1.1c-0.47 0-0.851 0.381-0.851 0.85 0 0.471 0.381 0.852 0.851 0.852h1.1c0.471 0 0.852-0.381 0.852-0.852z" fill="none" stroke="#231f20" stroke-linecap="round" stroke-linejoin="round" stroke-width=".4"/>
<path d="m47.217 413.43h-1.7c-0.939 0-1.7-0.762-1.7-1.702v-5.603c0-0.939 0.761-1.7 1.7-1.7v7.303h1.7c0.47 0 0.851 0.381 0.851 0.851 0 0.469-0.381 0.851-0.851 0.851" fill="#e9e9e9"/>
<path d="m47.217 413.43h-1.7c-0.939 0-1.7-0.762-1.7-1.702v-5.603c0-0.939 0.761-1.7 1.7-1.7v7.303h1.7c0.47 0 0.851 0.381 0.851 0.851 0 0.469-0.381 0.851-0.851 0.851z" fill="none" stroke="#231f20" stroke-linecap="round" stroke-linejoin="round" stroke-width=".4"/>
<path d="m48.546 406.35v0.705h0.769v2.957l-0.928-0.807v0.896l0.928 0.806h0.831v-3.852h0.711v-0.705z" fill="#231f20"/>
<path d="m42.046 412.55c0-0.626-0.507-1.134-1.134-1.134s-1.134 0.508-1.134 1.134c0 0.627 0.507 1.135 1.134 1.135s1.134-0.508 1.134-1.135" fill="#231f20"/>
<path d="m42.046 405.3c0 0.626-0.507 1.134-1.134 1.134s-1.134-0.508-1.134-1.134c0-0.627 0.507-1.134 1.134-1.134s1.134 0.507 1.134 1.134" fill="#231f20"/>
</g>
</g>
</g>
<g transform="matrix(.45179 0 0 -.45179 -12.981 282.25)">
<g clip-path="url(#n)">
<g clip-path="url(#l)">
<g clip-path="url(#j)">
<path d="m36.668 414.6c0 1.878-1.523 3.401-3.401 3.401-1.879 0-3.402-1.523-3.402-3.401 0-1.879 1.523-3.402 3.402-3.402 1.878 0 3.401 1.523 3.401 3.402" fill="#80cc28"/>
<path d="m36.668 414.6c0 1.878-1.523 3.401-3.401 3.401-1.879 0-3.402-1.523-3.402-3.401 0-1.879 1.523-3.402 3.402-3.402 1.878 0 3.401 1.523 3.401 3.402z" fill="none" stroke="#231f20" stroke-width="1.2"/>
<path d="m33.267 411.19c1.878 0 3.401 1.523 3.401 3.402 0 1.878-1.523 3.401-3.401 3.401" fill="none" stroke="#ed1c24" stroke-width="1.2"/>
<path d="m37.802 404.39c0-2.506-2.031-4.538-4.535-4.538-2.506 0-4.536 2.032-4.536 4.538 0 2.505 2.03 4.536 4.536 4.536 2.504 0 4.535-2.031 4.535-4.536" fill="#80cc28"/>
<path d="m35.875 404.39c0-1.442-1.168-2.609-2.607-2.609-1.442 0-2.608 1.167-2.608 2.609 0 1.439 1.166 2.608 2.608 2.608 1.439 0 2.607-1.169 2.607-2.608" fill="#fff"/>
<path d="m35.875 404.39c0-1.442-1.168-2.609-2.607-2.609-1.442 0-2.608 1.167-2.608 2.609 0 1.439 1.166 2.608 2.608 2.608 1.439 0 2.607-1.169 2.607-2.608z" fill="none" stroke="#231f20" stroke-width="1.2"/>
<path d="m33.268 407c1.439 0 2.607-1.169 2.607-2.608 0-1.442-1.168-2.609-2.607-2.609" fill="none" stroke="#ed1c24" stroke-width="1.2"/>
<path d="m54.02 403.82c0-0.939-0.761-1.701-1.702-1.701h-5.101c-0.939 0-1.7 0.762-1.7 1.701v10.205c0 0.939 0.761 1.7 1.7 1.7h5.101c0.941 0 1.702-0.761 1.702-1.7z" fill="#fff"/>
<path d="m54.02 403.82c0-0.939-0.761-1.701-1.702-1.701h-5.101c-0.939 0-1.7 0.762-1.7 1.701v10.205c0 0.939 0.761 1.7 1.7 1.7h5.101c0.941 0 1.702-0.761 1.702-1.7z" fill="none" stroke="#231f20" stroke-linecap="round" stroke-linejoin="round" stroke-width=".4"/>
<path d="m55.22 410.88c0-0.47-0.381-0.85-0.852-0.85h-1.1c-0.47 0-0.851 0.38-0.851 0.85 0 0.469 0.381 0.85 0.851 0.85h1.1c0.471 0 0.852-0.381 0.852-0.85" fill="#e9e9e9"/>
<path d="m55.22 410.88c0-0.47-0.381-0.85-0.852-0.85h-1.1c-0.47 0-0.851 0.38-0.851 0.85 0 0.469 0.381 0.85 0.851 0.85h1.1c0.471 0 0.852-0.381 0.852-0.85z" fill="none" stroke="#231f20" stroke-linecap="round" stroke-linejoin="round" stroke-width=".4"/>
<path d="m55.22 409.18c0-0.469-0.381-0.85-0.852-0.85h-1.1c-0.47 0-0.851 0.381-0.851 0.85 0 0.47 0.381 0.851 0.851 0.851h1.1c0.471 0 0.852-0.381 0.852-0.851" fill="#e9e9e9"/>
<path d="m55.22 409.18c0-0.469-0.381-0.85-0.852-0.85h-1.1c-0.47 0-0.851 0.381-0.851 0.85 0 0.47 0.381 0.851 0.851 0.851h1.1c0.471 0 0.852-0.381 0.852-0.851z" fill="none" stroke="#231f20" stroke-linecap="round" stroke-linejoin="round" stroke-width=".4"/>
<path d="m55.22 407.48c0-0.471-0.381-0.85-0.852-0.85h-1.1c-0.47 0-0.851 0.379-0.851 0.85 0 0.469 0.381 0.85 0.851 0.85h1.1c0.471 0 0.852-0.381 0.852-0.85" fill="#e9e9e9"/>
<path d="m55.22 407.48c0-0.471-0.381-0.85-0.852-0.85h-1.1c-0.47 0-0.851 0.379-0.851 0.85 0 0.469 0.381 0.85 0.851 0.85h1.1c0.471 0 0.852-0.381 0.852-0.85z" fill="none" stroke="#231f20" stroke-linecap="round" stroke-linejoin="round" stroke-width=".4"/>
<path d="m55.22 405.77c0-0.469-0.381-0.85-0.852-0.85h-1.1c-0.47 0-0.851 0.381-0.851 0.85 0 0.471 0.381 0.852 0.851 0.852h1.1c0.471 0 0.852-0.381 0.852-0.852" fill="#e9e9e9"/>
<path d="m55.22 405.77c0-0.469-0.381-0.85-0.852-0.85h-1.1c-0.47 0-0.851 0.381-0.851 0.85 0 0.471 0.381 0.852 0.851 0.852h1.1c0.471 0 0.852-0.381 0.852-0.852z" fill="none" stroke="#231f20" stroke-linecap="round" stroke-linejoin="round" stroke-width=".4"/>
<path d="m47.217 413.43h-1.7c-0.939 0-1.7-0.762-1.7-1.702v-5.603c0-0.939 0.761-1.7 1.7-1.7v7.303h1.7c0.47 0 0.851 0.381 0.851 0.851 0 0.469-0.381 0.851-0.851 0.851" fill="#e9e9e9"/>
<path d="m47.217 413.43h-1.7c-0.939 0-1.7-0.762-1.7-1.702v-5.603c0-0.939 0.761-1.7 1.7-1.7v7.303h1.7c0.47 0 0.851 0.381 0.851 0.851 0 0.469-0.381 0.851-0.851 0.851z" fill="none" stroke="#231f20" stroke-linecap="round" stroke-linejoin="round" stroke-width=".4"/>
<path d="m48.546 406.35v0.705h0.769v2.957l-0.928-0.807v0.896l0.928 0.806h0.831v-3.852h0.711v-0.705z" fill="#231f20"/>
<path d="m42.046 412.55c0-0.626-0.507-1.134-1.134-1.134s-1.134 0.508-1.134 1.134c0 0.627 0.507 1.135 1.134 1.135s1.134-0.508 1.134-1.135" fill="#231f20"/>
<path d="m42.046 405.3c0 0.626-0.507 1.134-1.134 1.134s-1.134-0.508-1.134-1.134c0-0.627 0.507-1.134 1.134-1.134s1.134 0.507 1.134 1.134" fill="#231f20"/>
</g>
</g>
</g>
</g>
<g transform="matrix(.60448 0 0 -.60448 -133.58 297.94)">
<g clip-path="url(#ao)">
<g transform="translate(247.19 312.7)">
<path d="m0 0c0-0.939-0.761-1.702-1.702-1.702h-5.101c-0.939 0-1.7 0.763-1.7 1.702v10.205c0 0.939 0.761 1.7 1.7 1.7h5.101c0.941 0 1.702-0.761 1.702-1.7z" fill="#fff"/>
</g>
<g transform="translate(247.19 312.7)">
<path d="m0 0c0-0.939-0.761-1.702-1.702-1.702h-5.101c-0.939 0-1.7 0.763-1.7 1.702v10.205c0 0.939 0.761 1.7 1.7 1.7h5.101c0.941 0 1.702-0.761 1.702-1.7z" fill="none" stroke="#231f20" stroke-linecap="round" stroke-linejoin="round" stroke-width=".4"/>
</g>
<g transform="translate(248.39 319.75)">
<path d="m0 0c0-0.47-0.382-0.85-0.851-0.85h-1.1c-0.471 0-0.852 0.38-0.852 0.85 0 0.469 0.381 0.85 0.852 0.85h1.1c0.469 0 0.851-0.381 0.851-0.85" fill="#e9e9e9"/>
</g>
<g transform="translate(248.39 319.75)">
<path d="m0 0c0-0.47-0.382-0.85-0.851-0.85h-1.1c-0.471 0-0.852 0.38-0.852 0.85 0 0.469 0.381 0.85 0.852 0.85h1.1c0.469 0 0.851-0.381 0.851-0.85z" fill="none" stroke="#231f20" stroke-linecap="round" stroke-linejoin="round" stroke-width=".4"/>
</g>
<g transform="translate(248.39 318.05)">
<path d="m0 0c0-0.469-0.382-0.85-0.851-0.85h-1.1c-0.471 0-0.852 0.381-0.852 0.85 0 0.47 0.381 0.851 0.852 0.851h1.1c0.469 0 0.851-0.381 0.851-0.851" fill="#e9e9e9"/>
</g>
<g transform="translate(248.39 318.05)">
<path d="m0 0c0-0.469-0.382-0.85-0.851-0.85h-1.1c-0.471 0-0.852 0.381-0.852 0.85 0 0.47 0.381 0.851 0.852 0.851h1.1c0.469 0 0.851-0.381 0.851-0.851z" fill="none" stroke="#231f20" stroke-linecap="round" stroke-linejoin="round" stroke-width=".4"/>
</g>
<g transform="translate(248.39 316.35)">
<path d="m0 0c0-0.47-0.382-0.85-0.851-0.85h-1.1c-0.471 0-0.852 0.38-0.852 0.85s0.381 0.85 0.852 0.85h1.1c0.469 0 0.851-0.38 0.851-0.85" fill="#e9e9e9"/>
</g>
<g transform="translate(248.39 316.35)">
<path d="m0 0c0-0.47-0.382-0.85-0.851-0.85h-1.1c-0.471 0-0.852 0.38-0.852 0.85s0.381 0.85 0.852 0.85h1.1c0.469 0 0.851-0.38 0.851-0.85z" fill="none" stroke="#231f20" stroke-linecap="round" stroke-linejoin="round" stroke-width=".4"/>
</g>
<g transform="translate(248.39 314.65)">
<path d="m0 0c0-0.47-0.382-0.85-0.851-0.85h-1.1c-0.471 0-0.852 0.38-0.852 0.85s0.381 0.85 0.852 0.85h1.1c0.469 0 0.851-0.38 0.851-0.85" fill="#e9e9e9"/>
</g>
<g transform="translate(248.39 314.65)">
<path d="m0 0c0-0.47-0.382-0.85-0.851-0.85h-1.1c-0.471 0-0.852 0.38-0.852 0.85s0.381 0.85 0.852 0.85h1.1c0.469 0 0.851-0.38 0.851-0.85z" fill="none" stroke="#231f20" stroke-linecap="round" stroke-linejoin="round" stroke-width=".4"/>
</g>
<g transform="translate(240.39 322.3)">
<path d="m0 0h-1.7c-0.939 0-1.7-0.762-1.7-1.702v-5.603c0-0.939 0.761-1.7 1.7-1.7v7.303h1.7c0.47 0 0.851 0.382 0.851 0.852 0 0.468-0.381 0.85-0.851 0.85" fill="#e9e9e9"/>
</g>
<g transform="translate(240.39 322.3)">
<path d="m0 0h-1.7c-0.939 0-1.7-0.762-1.7-1.702v-5.603c0-0.939 0.761-1.7 1.7-1.7v7.303h1.7c0.47 0 0.851 0.382 0.851 0.852 0 0.468-0.381 0.85-0.851 0.85z" fill="none" stroke="#231f20" stroke-linecap="round" stroke-linejoin="round" stroke-width=".4"/>
</g>
<g transform="translate(241.72 315.23)">
<path d="m0 0v0.704h0.769v2.957l-0.928-0.807v0.896l0.928 0.807h0.831v-3.853h0.711v-0.704z" fill="#231f20"/>
</g>
<g transform="translate(235.22 321.42)">
<path d="m0 0c0-0.626-0.508-1.134-1.134-1.134s-1.134 0.508-1.134 1.134 0.508 1.134 1.134 1.134 1.134-0.508 1.134-1.134" fill="#231f20"/>
</g>
<g transform="translate(235.22 314.18)">
<path d="m0 0c0 0.626-0.508 1.134-1.134 1.134s-1.134-0.508-1.134-1.134 0.508-1.133 1.134-1.133 1.134 0.507 1.134 1.133" fill="#231f20"/>
</g>
<g transform="translate(230.65 318.08)">
<path d="m0 0c0 2.507-2.031 4.536-4.534 4.536-2.507 0-4.536-2.029-4.536-4.536 0-2.506 2.029-4.534 4.536-4.534 2.503 0 4.534 2.028 4.534 4.534" fill="#b3c6ea"/>
</g>
<g transform="translate(230.65 318.08)">
<path d="m0 0c0 2.507-2.031 4.536-4.534 4.536-2.507 0-4.536-2.029-4.536-4.536 0-2.506 2.029-4.534 4.536-4.534 2.503 0 4.534 2.028 4.534 4.534z" fill="none" stroke="#ed1c24" stroke-width="1.2"/>
</g>
<g transform="translate(224.38 321.08)">
<path d="m0 0 3.463-5.995z" fill="none" stroke="#564ca9" stroke-miterlimit="2" stroke-width="1.2"/>
</g>
<g transform="translate(227.85 321.08)">
<path d="m0 0-3.461-5.995z" fill="none" stroke="#564ca9" stroke-miterlimit="2" stroke-width="1.2"/>
</g>
</g>
</g>
<g transform="matrix(.56781 0 0 -.56781 -122.94 273.3)">
<g clip-path="url(#ap)">
<g transform="translate(247.17 274.88)">
<path d="m0 0c0-0.946-0.766-1.714-1.714-1.714h-5.137c-0.946 0-1.713 0.768-1.713 1.714v10.277c0 0.946 0.767 1.712 1.713 1.712h5.137c0.948 0 1.714-0.766 1.714-1.712z" fill="#fff"/>
</g>
<g transform="translate(247.17 274.88)">
<path d="m0 0c0-0.946-0.766-1.714-1.714-1.714h-5.137c-0.946 0-1.713 0.768-1.713 1.714v10.277c0 0.946 0.767 1.712 1.713 1.712h5.137c0.948 0 1.714-0.766 1.714-1.712z" fill="none" stroke="#231f20" stroke-linecap="round" stroke-linejoin="round" stroke-width=".403"/>
</g>
<g transform="translate(248.38 281.98)">
<path d="m0 0c0-0.475-0.384-0.856-0.857-0.856h-1.108c-0.474 0-0.858 0.381-0.858 0.856 0 0.472 0.384 0.856 0.858 0.856h1.108c0.473 0 0.857-0.384 0.857-0.856" fill="#e9e9e9"/>
</g>
<g transform="translate(248.38 281.98)">
<path d="m0 0c0-0.475-0.384-0.856-0.857-0.856h-1.108c-0.474 0-0.858 0.381-0.858 0.856 0 0.472 0.384 0.856 0.858 0.856h1.108c0.473 0 0.857-0.384 0.857-0.856z" fill="none" stroke="#231f20" stroke-linecap="round" stroke-linejoin="round" stroke-width=".403"/>
</g>
<g transform="translate(248.38 280.27)">
<path d="m0 0c0-0.472-0.384-0.856-0.857-0.856h-1.108c-0.474 0-0.858 0.384-0.858 0.856 0 0.474 0.384 0.857 0.858 0.857h1.108c0.473 0 0.857-0.383 0.857-0.857" fill="#e9e9e9"/>
</g>
<g transform="translate(248.38 280.27)">
<path d="m0 0c0-0.472-0.384-0.856-0.857-0.856h-1.108c-0.474 0-0.858 0.384-0.858 0.856 0 0.474 0.384 0.857 0.858 0.857h1.108c0.473 0 0.857-0.383 0.857-0.857z" fill="none" stroke="#231f20" stroke-linecap="round" stroke-linejoin="round" stroke-width=".403"/>
</g>
<g transform="translate(248.38 278.56)">
<path d="m0 0c0-0.472-0.384-0.856-0.857-0.856h-1.108c-0.474 0-0.858 0.384-0.858 0.856 0 0.474 0.384 0.856 0.858 0.856h1.108c0.473 0 0.857-0.382 0.857-0.856" fill="#e9e9e9"/>
</g>
<g transform="translate(248.38 278.56)">
<path d="m0 0c0-0.472-0.384-0.856-0.857-0.856h-1.108c-0.474 0-0.858 0.384-0.858 0.856 0 0.474 0.384 0.856 0.858 0.856h1.108c0.473 0 0.857-0.382 0.857-0.856z" fill="none" stroke="#231f20" stroke-linecap="round" stroke-linejoin="round" stroke-width=".403"/>
</g>
<g transform="translate(248.38 276.84)">
<path d="m0 0c0-0.474-0.384-0.856-0.857-0.856h-1.108c-0.474 0-0.858 0.382-0.858 0.856 0 0.472 0.384 0.856 0.858 0.856h1.108c0.473 0 0.857-0.384 0.857-0.856" fill="#e9e9e9"/>
</g>
<g transform="translate(248.38 276.84)">
<path d="m0 0c0-0.474-0.384-0.856-0.857-0.856h-1.108c-0.474 0-0.858 0.382-0.858 0.856 0 0.472 0.384 0.856 0.858 0.856h1.108c0.473 0 0.857-0.384 0.857-0.856z" fill="none" stroke="#231f20" stroke-linecap="round" stroke-linejoin="round" stroke-width=".403"/>
</g>
<g transform="translate(240.32 284.55)">
<path d="m0 0h-1.712c-0.946 0-1.712-0.768-1.712-1.714v-5.643c0-0.946 0.766-1.712 1.712-1.712v7.355h1.712c0.474 0 0.857 0.385 0.857 0.857 0 0.473-0.383 0.857-0.857 0.857" fill="#e9e9e9"/>
</g>
<g transform="translate(240.32 284.55)">
<path d="m0 0h-1.712c-0.946 0-1.712-0.768-1.712-1.714v-5.643c0-0.946 0.766-1.712 1.712-1.712v7.355h1.712c0.474 0 0.857 0.385 0.857 0.857 0 0.473-0.383 0.857-0.857 0.857z" fill="none" stroke="#231f20" stroke-linecap="round" stroke-linejoin="round" stroke-width=".403"/>
</g>
<g transform="translate(241.66 277.43)">
<path d="m0 0v0.709h0.773v2.975l-0.933-0.811v0.902l0.933 0.812h0.838v-3.878h0.715v-0.709z" fill="#231f20"/>
</g>
<g transform="translate(226.25 277.73)">
<path d="m0 0c0-2.523-2.046-4.568-4.567-4.568-2.524 0-4.568 2.045-4.568 4.568s2.044 4.567 4.568 4.567c2.521 0 4.567-2.044 4.567-4.567" fill="#fff"/>
</g>
<g transform="translate(226.25 277.73)">
<path d="m0 0c0-2.523-2.046-4.568-4.567-4.568-2.524 0-4.568 2.045-4.568 4.568s2.044 4.567 4.568 4.567c2.521 0 4.567-2.044 4.567-4.567z" fill="none" stroke="#ed1c24" stroke-width="1.209"/>
</g>
<g transform="translate(230.82 282.3)">
<path d="m0 0c0-2.523-2.046-4.567-4.567-4.567-2.524 0-4.568 2.044-4.568 4.567s2.044 4.567 4.568 4.567c2.521 0 4.567-2.044 4.567-4.567" fill="#fff"/>
</g>
<g transform="translate(230.82 282.3)">
<path d="m0 0c0-2.523-2.046-4.567-4.567-4.567-2.524 0-4.568 2.044-4.568 4.567s2.044 4.567 4.568 4.567c2.521 0 4.567-2.044 4.567-4.567z" fill="none" stroke="#ed1c24" stroke-width="1.209"/>
</g>
<g transform="translate(235.12 283.66)">
<path d="m0 0c0-0.631-0.512-1.142-1.142-1.142-0.631 0-1.141 0.511-1.141 1.142s0.51 1.142 1.141 1.142c0.63 0 1.142-0.511 1.142-1.142" fill="#231f20"/>
</g>
<g transform="translate(235.12 276.37)">
<path d="m0 0c0 0.631-0.512 1.142-1.142 1.142-0.631 0-1.141-0.511-1.141-1.142 0-0.629 0.51-1.141 1.141-1.141 0.63 0 1.142 0.512 1.142 1.141" fill="#231f20"/>
</g>
</g>
</g>
<g transform="matrix(.45664 0 0 -.45664 -13.568 346.08)">
<g clip-path="url(#i)">
<g clip-path="url(#g)">
<g clip-path="url(#e)">
<path d="m57.133 483.92c0-0.939-0.761-1.702-1.702-1.702h-5.101c-0.939 0-1.7 0.763-1.7 1.702v10.204c0 0.94 0.761 1.7 1.7 1.7h5.101c0.941 0 1.702-0.76 1.702-1.7z" fill="#fff"/>
<path d="m57.133 483.92c0-0.939-0.761-1.702-1.702-1.702h-5.101c-0.939 0-1.7 0.763-1.7 1.702v10.204c0 0.94 0.761 1.7 1.7 1.7h5.101c0.941 0 1.702-0.76 1.702-1.7z" fill="none" stroke="#231f20" stroke-linecap="round" stroke-linejoin="round" stroke-width=".4"/>
<path d="m58.333 490.97c0-0.47-0.381-0.85-0.852-0.85h-1.1c-0.47 0-0.851 0.38-0.851 0.85 0 0.469 0.381 0.85 0.851 0.85h1.1c0.471 0 0.852-0.381 0.852-0.85" fill="#e9e9e9"/>
<path d="m58.333 490.97c0-0.47-0.381-0.85-0.852-0.85h-1.1c-0.47 0-0.851 0.38-0.851 0.85 0 0.469 0.381 0.85 0.851 0.85h1.1c0.471 0 0.852-0.381 0.852-0.85z" fill="none" stroke="#231f20" stroke-linecap="round" stroke-linejoin="round" stroke-width=".4"/>
<path d="m58.333 489.27c0-0.468-0.381-0.85-0.852-0.85h-1.1c-0.47 0-0.851 0.382-0.851 0.85 0 0.471 0.381 0.852 0.851 0.852h1.1c0.471 0 0.852-0.381 0.852-0.852" fill="#e9e9e9"/>
<path d="m58.333 489.27c0-0.468-0.381-0.85-0.852-0.85h-1.1c-0.47 0-0.851 0.382-0.851 0.85 0 0.471 0.381 0.852 0.851 0.852h1.1c0.471 0 0.852-0.381 0.852-0.852z" fill="none" stroke="#231f20" stroke-linecap="round" stroke-linejoin="round" stroke-width=".4"/>
<path d="m58.333 487.57c0-0.468-0.381-0.85-0.852-0.85h-1.1c-0.47 0-0.851 0.382-0.851 0.85 0 0.471 0.381 0.85 0.851 0.85h1.1c0.471 0 0.852-0.379 0.852-0.85" fill="#e9e9e9"/>
<path d="m58.333 487.57c0-0.468-0.381-0.85-0.852-0.85h-1.1c-0.47 0-0.851 0.382-0.851 0.85 0 0.471 0.381 0.85 0.851 0.85h1.1c0.471 0 0.852-0.379 0.852-0.85z" fill="none" stroke="#231f20" stroke-linecap="round" stroke-linejoin="round" stroke-width=".4"/>
<path d="m58.333 485.87c0-0.47-0.381-0.85-0.852-0.85h-1.1c-0.47 0-0.851 0.38-0.851 0.85 0 0.469 0.381 0.85 0.851 0.85h1.1c0.471 0 0.852-0.381 0.852-0.85" fill="#e9e9e9"/>
<path d="m58.333 485.87c0-0.47-0.381-0.85-0.852-0.85h-1.1c-0.47 0-0.851 0.38-0.851 0.85 0 0.469 0.381 0.85 0.851 0.85h1.1c0.471 0 0.852-0.381 0.852-0.85z" fill="none" stroke="#231f20" stroke-linecap="round" stroke-linejoin="round" stroke-width=".4"/>
<path d="m50.33 493.52h-1.7c-0.939 0-1.7-0.76-1.7-1.701v-5.603c0-0.939 0.761-1.7 1.7-1.7v7.303h1.7c0.47 0 0.851 0.381 0.851 0.851 0 0.469-0.381 0.85-0.851 0.85" fill="#e9e9e9"/>
<path d="m50.33 493.52h-1.7c-0.939 0-1.7-0.76-1.7-1.701v-5.603c0-0.939 0.761-1.7 1.7-1.7v7.303h1.7c0.47 0 0.851 0.381 0.851 0.851 0 0.469-0.381 0.85-0.851 0.85z" fill="none" stroke="#231f20" stroke-linecap="round" stroke-linejoin="round" stroke-width=".4"/>
<path d="m51.66 486.45v0.704h0.768v2.957l-0.929-0.807v0.896l0.929 0.806h0.832v-3.852h0.71v-0.704z" fill="#231f20"/>
<path d="m41.249 482.22c0-1.253-1.014-2.269-2.268-2.269h-6.803c-1.252 0-2.268 1.016-2.268 2.269v13.606c0 1.252 1.016 2.267 2.268 2.267h6.803c1.254 0 2.268-1.015 2.268-2.267z" fill="#80d6f7"/>
<path d="m41.249 482.22c0-1.253-1.014-2.269-2.268-2.269h-6.803c-1.252 0-2.268 1.016-2.268 2.269v13.606c0 1.252 1.016 2.267 2.268 2.267h6.803c1.254 0 2.268-1.015 2.268-2.267z" fill="none" stroke="#231f20" stroke-width=".4"/>
<path d="m45.159 492.64c0-0.626-0.508-1.134-1.134-1.134s-1.134 0.508-1.134 1.134c0 0.627 0.508 1.135 1.134 1.135s1.134-0.508 1.134-1.135" fill="#231f20"/>
<path d="m45.159 485.4c0 0.627-0.508 1.135-1.134 1.135s-1.134-0.508-1.134-1.135c0-0.626 0.508-1.132 1.134-1.132s1.134 0.506 1.134 1.132" fill="#231f20"/>
</g>
</g>
</g>
</g>
<g transform="matrix(.45664 0 0 -.45664 -13.568 354.55)">
<g clip-path="url(#h)">
<g clip-path="url(#f)">
<g clip-path="url(#d)">
<path d="m57.133 483.92c0-0.939-0.761-1.702-1.702-1.702h-5.101c-0.939 0-1.7 0.763-1.7 1.702v10.204c0 0.94 0.761 1.7 1.7 1.7h5.101c0.941 0 1.702-0.76 1.702-1.7z" fill="#fff"/>
<path d="m57.133 483.92c0-0.939-0.761-1.702-1.702-1.702h-5.101c-0.939 0-1.7 0.763-1.7 1.702v10.204c0 0.94 0.761 1.7 1.7 1.7h5.101c0.941 0 1.702-0.76 1.702-1.7z" fill="none" stroke="#231f20" stroke-linecap="round" stroke-linejoin="round" stroke-width=".4"/>
<path d="m58.333 490.97c0-0.47-0.381-0.85-0.852-0.85h-1.1c-0.47 0-0.851 0.38-0.851 0.85 0 0.469 0.381 0.85 0.851 0.85h1.1c0.471 0 0.852-0.381 0.852-0.85" fill="#e9e9e9"/>
<path d="m58.333 490.97c0-0.47-0.381-0.85-0.852-0.85h-1.1c-0.47 0-0.851 0.38-0.851 0.85 0 0.469 0.381 0.85 0.851 0.85h1.1c0.471 0 0.852-0.381 0.852-0.85z" fill="none" stroke="#231f20" stroke-linecap="round" stroke-linejoin="round" stroke-width=".4"/>
<path d="m58.333 489.27c0-0.468-0.381-0.85-0.852-0.85h-1.1c-0.47 0-0.851 0.382-0.851 0.85 0 0.471 0.381 0.852 0.851 0.852h1.1c0.471 0 0.852-0.381 0.852-0.852" fill="#e9e9e9"/>
<path d="m58.333 489.27c0-0.468-0.381-0.85-0.852-0.85h-1.1c-0.47 0-0.851 0.382-0.851 0.85 0 0.471 0.381 0.852 0.851 0.852h1.1c0.471 0 0.852-0.381 0.852-0.852z" fill="none" stroke="#231f20" stroke-linecap="round" stroke-linejoin="round" stroke-width=".4"/>
<path d="m58.333 487.57c0-0.468-0.381-0.85-0.852-0.85h-1.1c-0.47 0-0.851 0.382-0.851 0.85 0 0.471 0.381 0.85 0.851 0.85h1.1c0.471 0 0.852-0.379 0.852-0.85" fill="#e9e9e9"/>
<path d="m58.333 487.57c0-0.468-0.381-0.85-0.852-0.85h-1.1c-0.47 0-0.851 0.382-0.851 0.85 0 0.471 0.381 0.85 0.851 0.85h1.1c0.471 0 0.852-0.379 0.852-0.85z" fill="none" stroke="#231f20" stroke-linecap="round" stroke-linejoin="round" stroke-width=".4"/>
<path d="m58.333 485.87c0-0.47-0.381-0.85-0.852-0.85h-1.1c-0.47 0-0.851 0.38-0.851 0.85 0 0.469 0.381 0.85 0.851 0.85h1.1c0.471 0 0.852-0.381 0.852-0.85" fill="#e9e9e9"/>
<path d="m58.333 485.87c0-0.47-0.381-0.85-0.852-0.85h-1.1c-0.47 0-0.851 0.38-0.851 0.85 0 0.469 0.381 0.85 0.851 0.85h1.1c0.471 0 0.852-0.381 0.852-0.85z" fill="none" stroke="#231f20" stroke-linecap="round" stroke-linejoin="round" stroke-width=".4"/>
<path d="m50.33 493.52h-1.7c-0.939 0-1.7-0.76-1.7-1.701v-5.603c0-0.939 0.761-1.7 1.7-1.7v7.303h1.7c0.47 0 0.851 0.381 0.851 0.851 0 0.469-0.381 0.85-0.851 0.85" fill="#e9e9e9"/>
<path d="m50.33 493.52h-1.7c-0.939 0-1.7-0.76-1.7-1.701v-5.603c0-0.939 0.761-1.7 1.7-1.7v7.303h1.7c0.47 0 0.851 0.381 0.851 0.851 0 0.469-0.381 0.85-0.851 0.85z" fill="none" stroke="#231f20" stroke-linecap="round" stroke-linejoin="round" stroke-width=".4"/>
<path d="m51.66 486.45v0.704h0.768v2.957l-0.929-0.807v0.896l0.929 0.806h0.832v-3.852h0.71v-0.704z" fill="#231f20"/>
<path d="m41.249 482.22c0-1.253-1.014-2.269-2.268-2.269h-6.803c-1.252 0-2.268 1.016-2.268 2.269v13.606c0 1.252 1.016 2.267 2.268 2.267h6.803c1.254 0 2.268-1.015 2.268-2.267z" fill="#daa566"/>
<path d="m41.249 482.22c0-1.253-1.014-2.269-2.268-2.269h-6.803c-1.252 0-2.268 1.016-2.268 2.269v13.606c0 1.252 1.016 2.267 2.268 2.267h6.803c1.254 0 2.268-1.015 2.268-2.267z" fill="none" stroke="#231f20" stroke-width=".4"/>
<path d="m45.159 492.64c0-0.626-0.508-1.134-1.134-1.134s-1.134 0.508-1.134 1.134c0 0.627 0.508 1.135 1.134 1.135s1.134-0.508 1.134-1.135" fill="#231f20"/>
<path d="m45.159 485.4c0 0.627-0.508 1.135-1.134 1.135s-1.134-0.508-1.134-1.135c0-0.626 0.508-1.132 1.134-1.132s1.134 0.506 1.134 1.132" fill="#231f20"/>
</g>
</g>
</g>
</g>
<g transform="matrix(.45664 0 0 -.45664 -13.568 349.81)">
<g clip-path="url(#c)">
<g clip-path="url(#b)">
<g clip-path="url(#a)">
<path d="m57.133 455.01c0-0.939-0.761-1.701-1.702-1.701h-5.101c-0.939 0-1.7 0.762-1.7 1.701v10.205c0 0.939 0.761 1.7 1.7 1.7h5.101c0.941 0 1.702-0.761 1.702-1.7z" fill="#fff"/>
<path d="m57.133 455.01c0-0.939-0.761-1.701-1.702-1.701h-5.101c-0.939 0-1.7 0.762-1.7 1.701v10.205c0 0.939 0.761 1.7 1.7 1.7h5.101c0.941 0 1.702-0.761 1.702-1.7z" fill="none" stroke="#231f20" stroke-linecap="round" stroke-linejoin="round" stroke-width=".4"/>
<path d="m58.333 462.06c0-0.47-0.381-0.85-0.852-0.85h-1.1c-0.47 0-0.851 0.38-0.851 0.85 0 0.469 0.381 0.85 0.851 0.85h1.1c0.471 0 0.852-0.381 0.852-0.85" fill="#e9e9e9"/>
<path d="m58.333 462.06c0-0.47-0.381-0.85-0.852-0.85h-1.1c-0.47 0-0.851 0.38-0.851 0.85 0 0.469 0.381 0.85 0.851 0.85h1.1c0.471 0 0.852-0.381 0.852-0.85z" fill="none" stroke="#231f20" stroke-linecap="round" stroke-linejoin="round" stroke-width=".4"/>
<path d="m58.333 460.36c0-0.469-0.381-0.85-0.852-0.85h-1.1c-0.47 0-0.851 0.381-0.851 0.85 0 0.47 0.381 0.851 0.851 0.851h1.1c0.471 0 0.852-0.381 0.852-0.851" fill="#e9e9e9"/>
<path d="m58.333 460.36c0-0.469-0.381-0.85-0.852-0.85h-1.1c-0.47 0-0.851 0.381-0.851 0.85 0 0.47 0.381 0.851 0.851 0.851h1.1c0.471 0 0.852-0.381 0.852-0.851z" fill="none" stroke="#231f20" stroke-linecap="round" stroke-linejoin="round" stroke-width=".4"/>
<path d="m58.333 458.66c0-0.47-0.381-0.85-0.852-0.85h-1.1c-0.47 0-0.851 0.38-0.851 0.85 0 0.469 0.381 0.85 0.851 0.85h1.1c0.471 0 0.852-0.381 0.852-0.85" fill="#e9e9e9"/>
<path d="m58.333 458.66c0-0.47-0.381-0.85-0.852-0.85h-1.1c-0.47 0-0.851 0.38-0.851 0.85 0 0.469 0.381 0.85 0.851 0.85h1.1c0.471 0 0.852-0.381 0.852-0.85z" fill="none" stroke="#231f20" stroke-linecap="round" stroke-linejoin="round" stroke-width=".4"/>
<path d="m58.333 456.96c0-0.47-0.381-0.85-0.852-0.85h-1.1c-0.47 0-0.851 0.38-0.851 0.85 0 0.469 0.381 0.851 0.851 0.851h1.1c0.471 0 0.852-0.382 0.852-0.851" fill="#e9e9e9"/>
<path d="m58.333 456.96c0-0.47-0.381-0.85-0.852-0.85h-1.1c-0.47 0-0.851 0.38-0.851 0.85 0 0.469 0.381 0.851 0.851 0.851h1.1c0.471 0 0.852-0.382 0.852-0.851z" fill="none" stroke="#231f20" stroke-linecap="round" stroke-linejoin="round" stroke-width=".4"/>
<path d="m50.33 464.61h-1.7c-0.939 0-1.7-0.762-1.7-1.702v-5.603c0-0.939 0.761-1.7 1.7-1.7v7.303h1.7c0.47 0 0.851 0.382 0.851 0.851 0 0.47-0.381 0.851-0.851 0.851" fill="#e9e9e9"/>
<path d="m50.33 464.61h-1.7c-0.939 0-1.7-0.762-1.7-1.702v-5.603c0-0.939 0.761-1.7 1.7-1.7v7.303h1.7c0.47 0 0.851 0.382 0.851 0.851 0 0.47-0.381 0.851-0.851 0.851z" fill="none" stroke="#231f20" stroke-linecap="round" stroke-linejoin="round" stroke-width=".4"/>
<path d="m51.66 457.54v0.704h0.768v2.957l-0.928-0.807v0.896l0.928 0.807h0.832v-3.853h0.71v-0.704z" fill="#231f20"/>
<path d="m41.249 453.31c0-1.253-1.014-2.269-2.268-2.269h-6.803c-1.252 0-2.268 1.016-2.268 2.269v13.606c0 1.251 1.016 2.267 2.268 2.267h6.803c1.254 0 2.268-1.016 2.268-2.267z" fill="#fff200"/>
<path d="m41.249 453.31c0-1.253-1.014-2.269-2.268-2.269h-6.803c-1.252 0-2.268 1.016-2.268 2.269v13.606c0 1.251 1.016 2.267 2.268 2.267h6.803c1.254 0 2.268-1.016 2.268-2.267z" fill="none" stroke="#231f20" stroke-width=".4"/>
<path d="m45.159 463.73c0-0.627-0.508-1.135-1.134-1.135s-1.134 0.508-1.134 1.135c0 0.626 0.508 1.134 1.134 1.134s1.134-0.508 1.134-1.134" fill="#231f20"/>
<path d="m45.159 456.49c0 0.626-0.508 1.134-1.134 1.134s-1.134-0.508-1.134-1.134c0-0.627 0.508-1.134 1.134-1.134s1.134 0.507 1.134 1.134" fill="#231f20"/>
</g>
</g>
</g>
</g>
<g transform="matrix(.46374 0 0 -.46374 -100.61 246.97)">
<g clip-path="url(#al)">
<g transform="translate(247.19 207.94)">
<path d="m0 0c0-0.939-0.761-1.702-1.702-1.702h-5.101c-0.939 0-1.7 0.763-1.7 1.702v10.204c0 0.939 0.761 1.7 1.7 1.7h5.101c0.941 0 1.702-0.761 1.702-1.7z" fill="#fff"/>
</g>
<g transform="translate(247.19 207.94)">
<path d="m0 0c0-0.939-0.761-1.702-1.702-1.702h-5.101c-0.939 0-1.7 0.763-1.7 1.702v10.204c0 0.939 0.761 1.7 1.7 1.7h5.101c0.941 0 1.702-0.761 1.702-1.7z" fill="none" stroke="#231f20" stroke-linecap="round" stroke-linejoin="round" stroke-width=".4"/>
</g>
<g transform="translate(248.39 214.99)">
<path d="m0 0c0-0.47-0.382-0.85-0.851-0.85h-1.1c-0.471 0-0.852 0.38-0.852 0.85 0 0.469 0.381 0.85 0.852 0.85h1.1c0.469 0 0.851-0.381 0.851-0.85" fill="#e9e9e9"/>
</g>
<g transform="translate(248.39 214.99)">
<path d="m0 0c0-0.47-0.382-0.85-0.851-0.85h-1.1c-0.471 0-0.852 0.38-0.852 0.85 0 0.469 0.381 0.85 0.852 0.85h1.1c0.469 0 0.851-0.381 0.851-0.85z" fill="none" stroke="#231f20" stroke-linecap="round" stroke-linejoin="round" stroke-width=".4"/>
</g>
<g transform="translate(248.39 213.29)">
<path d="m0 0c0-0.469-0.382-0.85-0.851-0.85h-1.1c-0.471 0-0.852 0.381-0.852 0.85 0 0.47 0.381 0.851 0.852 0.851h1.1c0.469 0 0.851-0.381 0.851-0.851" fill="#e9e9e9"/>
</g>
<g transform="translate(248.39 213.29)">
<path d="m0 0c0-0.469-0.382-0.85-0.851-0.85h-1.1c-0.471 0-0.852 0.381-0.852 0.85 0 0.47 0.381 0.851 0.852 0.851h1.1c0.469 0 0.851-0.381 0.851-0.851z" fill="none" stroke="#231f20" stroke-linecap="round" stroke-linejoin="round" stroke-width=".4"/>
</g>
<g transform="translate(248.39 211.59)">
<path d="m0 0c0-0.47-0.382-0.85-0.851-0.85h-1.1c-0.471 0-0.852 0.38-0.852 0.85 0 0.469 0.381 0.85 0.852 0.85h1.1c0.469 0 0.851-0.381 0.851-0.85" fill="#e9e9e9"/>
</g>
<g transform="translate(248.39 211.59)">
<path d="m0 0c0-0.47-0.382-0.85-0.851-0.85h-1.1c-0.471 0-0.852 0.38-0.852 0.85 0 0.469 0.381 0.85 0.852 0.85h1.1c0.469 0 0.851-0.381 0.851-0.85z" fill="none" stroke="#231f20" stroke-linecap="round" stroke-linejoin="round" stroke-width=".4"/>
</g>
<g transform="translate(248.39 209.89)">
<path d="m0 0c0-0.469-0.382-0.85-0.851-0.85h-1.1c-0.471 0-0.852 0.381-0.852 0.85 0 0.47 0.381 0.851 0.852 0.851h1.1c0.469 0 0.851-0.381 0.851-0.851" fill="#e9e9e9"/>
</g>
<g transform="translate(248.39 209.89)">
<path d="m0 0c0-0.469-0.382-0.85-0.851-0.85h-1.1c-0.471 0-0.852 0.381-0.852 0.85 0 0.47 0.381 0.851 0.852 0.851h1.1c0.469 0 0.851-0.381 0.851-0.851z" fill="none" stroke="#231f20" stroke-linecap="round" stroke-linejoin="round" stroke-width=".4"/>
</g>
<g transform="translate(240.39 217.54)">
<path d="m0 0h-1.7c-0.939 0-1.7-0.762-1.7-1.702v-5.602c0-0.939 0.761-1.7 1.7-1.7v7.302h1.7c0.47 0 0.851 0.382 0.851 0.851s-0.381 0.851-0.851 0.851" fill="#e9e9e9"/>
</g>
<g transform="translate(240.39 217.54)">
<path d="m0 0h-1.7c-0.939 0-1.7-0.762-1.7-1.702v-5.602c0-0.939 0.761-1.7 1.7-1.7v7.302h1.7c0.47 0 0.851 0.382 0.851 0.851s-0.381 0.851-0.851 0.851z" fill="none" stroke="#231f20" stroke-linecap="round" stroke-linejoin="round" stroke-width=".4"/>
</g>
<g transform="translate(241.72 210.47)">
<path d="m0 0v0.704h0.768v2.954l-0.927-0.805v0.896l0.927 0.805h0.831v-3.85h0.711v-0.704z" fill="#231f20"/>
</g>
<g transform="translate(235.22 216.66)">
<path d="m0 0c0-0.626-0.508-1.134-1.134-1.134s-1.133 0.508-1.133 1.134 0.507 1.134 1.133 1.134 1.134-0.508 1.134-1.134" fill="#231f20"/>
</g>
<g transform="translate(235.22 209.42)">
<path d="m0 0c0 0.626-0.508 1.134-1.134 1.134s-1.133-0.508-1.133-1.134 0.507-1.134 1.133-1.134 1.134 0.508 1.134 1.134" fill="#231f20"/>
</g>
<g transform="translate(227.07 212.05)">
<path d="m0 0v5.953c0 1.096-0.887 1.984-1.984 1.984h-2.977v-7.937z" fill="#daa566"/>
</g>
<g transform="translate(222.11 219.98)">
<path d="m0 0h-2.976c-1.096 0-1.984-0.888-1.984-1.984v-5.953h4.96z" fill="#80d6f7"/>
</g>
<g transform="translate(217.15 212.05)">
<path d="m0 0v-5.951c0-1.098 0.888-1.986 1.984-1.986h2.976v7.937z" fill="#80cc28"/>
</g>
<g transform="translate(222.11 212.05)">
<path d="m0 0v-7.937h2.977c1.097 0 1.984 0.888 1.984 1.986v5.951z" fill="#fff200"/>
</g>
<g transform="translate(227.07 206.1)">
<path d="m0 0c0-1.097-0.887-1.985-1.984-1.985h-5.953c-1.096 0-1.984 0.888-1.984 1.985v11.904c0 1.096 0.888 1.985 1.984 1.985h5.953c1.097 0 1.984-0.889 1.984-1.985z" fill="none" stroke="#231f20" stroke-linecap="round" stroke-linejoin="round" stroke-width=".4"/>
</g>
<g transform="translate(231.32 214.03)">
<path d="m0 0v5.953c0 1.097-0.887 1.985-1.984 1.985h-2.977v-7.938z" fill="#daa566"/>
</g>
<g transform="translate(221.4 214.03)">
<path d="m0 0v-5.951c0-1.097 0.888-1.985 1.984-1.985h2.976v7.936z" fill="#80cc28"/>
</g>
<g transform="translate(226.36 214.03)">
<path d="m0 0v-7.936h2.977c1.097 0 1.984 0.888 1.984 1.985v5.951z" fill="#fff200"/>
</g>
<g transform="translate(226.36 221.97)">
<path d="m0 0h-2.976c-1.096 0-1.984-0.888-1.984-1.984v-5.954h4.96z" fill="#80d6f7"/>
</g>
<g transform="translate(231.32 208.08)">
<path d="m0 0c0-1.097-0.887-1.985-1.984-1.985h-5.953c-1.096 0-1.984 0.888-1.984 1.985v11.904c0 1.096 0.888 1.985 1.984 1.985h5.953c1.097 0 1.984-0.889 1.984-1.985z" fill="none" stroke="#231f20" stroke-linecap="round" stroke-linejoin="round" stroke-width=".4"/>
</g>
</g>
</g>
<g transform="matrix(.50767 0 0 -.50767 -176.45 364.55)">
<g clip-path="url(#af)">
<g clip-path="url(#ae)">
<g clip-path="url(#ad)">
<path d="m388.88 404.44c0-0.939-0.761-1.701-1.702-1.701h-5.101c-0.94 0-1.7 0.762-1.7 1.701v10.205c0 0.939 0.76 1.7 1.7 1.7h5.101c0.941 0 1.702-0.761 1.702-1.7z" fill="#fff"/>
<path d="m388.88 404.44c0-0.939-0.761-1.701-1.702-1.701h-5.101c-0.94 0-1.7 0.762-1.7 1.701v10.205c0 0.939 0.76 1.7 1.7 1.7h5.101c0.941 0 1.702-0.761 1.702-1.7z" fill="none" stroke="#231f20" stroke-linecap="round" stroke-linejoin="round" stroke-width=".4"/>
<path d="m390.08 411.5c0-0.47-0.382-0.85-0.852-0.85h-1.1c-0.47 0-0.851 0.38-0.851 0.85 0 0.469 0.381 0.85 0.851 0.85h1.1c0.47 0 0.852-0.381 0.852-0.85" fill="#e9e9e9"/>
<path d="m390.08 411.5c0-0.47-0.382-0.85-0.852-0.85h-1.1c-0.47 0-0.851 0.38-0.851 0.85 0 0.469 0.381 0.85 0.851 0.85h1.1c0.47 0 0.852-0.381 0.852-0.85z" fill="none" stroke="#231f20" stroke-linecap="round" stroke-linejoin="round" stroke-width=".4"/>
<path d="m390.08 409.8c0-0.468-0.382-0.849-0.852-0.849h-1.1c-0.47 0-0.851 0.381-0.851 0.849 0 0.471 0.381 0.852 0.851 0.852h1.1c0.47 0 0.852-0.381 0.852-0.852" fill="#e9e9e9"/>
<path d="m390.08 409.8c0-0.468-0.382-0.849-0.852-0.849h-1.1c-0.47 0-0.851 0.381-0.851 0.849 0 0.471 0.381 0.852 0.851 0.852h1.1c0.47 0 0.852-0.381 0.852-0.852z" fill="none" stroke="#231f20" stroke-linecap="round" stroke-linejoin="round" stroke-width=".4"/>
<path d="m390.08 408.1c0-0.47-0.382-0.85-0.852-0.85h-1.1c-0.47 0-0.851 0.38-0.851 0.85 0 0.469 0.381 0.85 0.851 0.85h1.1c0.47 0 0.852-0.381 0.852-0.85" fill="#e9e9e9"/>
<path d="m390.08 408.1c0-0.47-0.382-0.85-0.852-0.85h-1.1c-0.47 0-0.851 0.38-0.851 0.85 0 0.469 0.381 0.85 0.851 0.85h1.1c0.47 0 0.852-0.381 0.852-0.85z" fill="none" stroke="#231f20" stroke-linecap="round" stroke-linejoin="round" stroke-width=".4"/>
<path d="m390.08 406.4c0-0.468-0.382-0.85-0.852-0.85h-1.1c-0.47 0-0.851 0.382-0.851 0.85 0 0.471 0.381 0.852 0.851 0.852h1.1c0.47 0 0.852-0.381 0.852-0.852" fill="#e9e9e9"/>
<path d="m390.08 406.4c0-0.468-0.382-0.85-0.852-0.85h-1.1c-0.47 0-0.851 0.382-0.851 0.85 0 0.471 0.381 0.852 0.851 0.852h1.1c0.47 0 0.852-0.381 0.852-0.852z" fill="none" stroke="#231f20" stroke-linecap="round" stroke-linejoin="round" stroke-width=".4"/>
<path d="m382.07 414.05h-1.7c-0.94 0-1.7-0.762-1.7-1.702v-5.603c0-0.939 0.76-1.7 1.7-1.7v7.303h1.7c0.47 0 0.851 0.381 0.851 0.851 0 0.469-0.381 0.851-0.851 0.851" fill="#e9e9e9"/>
<path d="m382.07 414.05h-1.7c-0.94 0-1.7-0.762-1.7-1.702v-5.603c0-0.939 0.76-1.7 1.7-1.7v7.303h1.7c0.47 0 0.851 0.381 0.851 0.851 0 0.469-0.381 0.851-0.851 0.851z" fill="none" stroke="#231f20" stroke-linecap="round" stroke-linejoin="round" stroke-width=".4"/>
<path d="m384.49 406.96c-0.276 0-0.5 0.224-0.5 0.5 0 0.275 0.224 0.504 0.5 0.504 0.274 0 0.505-0.229 0.505-0.504 0-0.276-0.231-0.5-0.505-0.5m1.004 2.534-0.473-0.627c-0.064-0.083-0.115-0.217-0.115-0.326v-0.134h-0.833v0.192c0 0.275 0.077 0.447 0.244 0.665l0.473 0.608c0.103 0.135 0.186 0.288 0.186 0.429 0 0.3-0.198 0.525-0.519 0.525-0.339 0-0.512-0.237-0.512-0.532h-0.831c0 0.794 0.601 1.281 1.343 1.281 0.724 0 1.35-0.468 1.35-1.281 0-0.319-0.134-0.563-0.313-0.8" fill="#231f20"/>
<path d="m376.9 413.17c0-0.626-0.508-1.134-1.134-1.134-0.627 0-1.135 0.508-1.135 1.134 0 0.627 0.508 1.135 1.135 1.135 0.626 0 1.134-0.508 1.134-1.135" fill="#231f20"/>
<path d="m376.9 405.92c0 0.627-0.508 1.134-1.134 1.134-0.627 0-1.135-0.507-1.135-1.134s0.508-1.134 1.135-1.134c0.626 0 1.134 0.507 1.134 1.134" fill="#231f20"/>
<path d="m360.96 407.11c0.554-0.761 0.385-1.825-0.376-2.379l-4.128-2.998c-0.76-0.553-1.824-0.383-2.377 0.377l-5.997 8.257c-0.553 0.759-0.384 1.823 0.375 2.375l4.129 3c0.76 0.552 1.824 0.383 2.376-0.375z" fill="#80d6f7"/>
<path d="m360.96 407.11c0.554-0.761 0.385-1.825-0.376-2.379l-4.128-2.998c-0.76-0.553-1.824-0.383-2.377 0.377l-5.997 8.257c-0.553 0.759-0.384 1.823 0.375 2.375l4.129 3c0.76 0.552 1.824 0.383 2.376-0.375z" fill="none" stroke="#231f20" stroke-width=".4"/>
<path d="m363.62 406.36c0.196-0.919-0.391-1.823-1.311-2.019l-4.99-1.06c-0.919-0.195-1.823 0.392-2.018 1.31l-2.121 9.983c-0.197 0.919 0.39 1.822 1.309 2.017l4.992 1.062c0.919 0.195 1.822-0.392 2.017-1.311z" fill="#daa566"/>
<path d="m363.62 406.36c0.196-0.919-0.391-1.823-1.311-2.019l-4.99-1.06c-0.919-0.195-1.823 0.392-2.018 1.31l-2.121 9.983c-0.197 0.919 0.39 1.822 1.309 2.017l4.992 1.062c0.919 0.195 1.822-0.392 2.017-1.311z" fill="none" stroke="#231f20" stroke-width=".4"/>
<path d="m365.74 404.59c-0.195-0.918-1.098-1.505-2.017-1.31l-4.992 1.06c-0.919 0.196-1.505 1.1-1.31 2.019l2.122 9.982c0.196 0.919 1.099 1.506 2.018 1.311l4.992-1.062c0.918-0.195 1.504-1.098 1.309-2.016z" fill="#80cc28"/>
<path d="m365.74 404.59c-0.195-0.918-1.098-1.505-2.017-1.31l-4.992 1.06c-0.919 0.196-1.505 1.1-1.31 2.019l2.122 9.982c0.196 0.919 1.099 1.506 2.018 1.311l4.992-1.062c0.918-0.195 1.504-1.098 1.309-2.016z" fill="none" stroke="#231f20" stroke-width=".4"/>
<path d="m366.96 402.11c-0.552-0.76-1.616-0.93-2.375-0.377l-4.129 2.998c-0.759 0.554-0.929 1.618-0.376 2.379l5.999 8.257c0.552 0.758 1.615 0.926 2.376 0.375l4.128-3c0.76-0.553 0.928-1.616 0.377-2.375z" fill="#fff200"/>
<path d="m366.96 402.11c-0.552-0.76-1.616-0.93-2.375-0.377l-4.129 2.998c-0.759 0.554-0.929 1.618-0.376 2.379l5.999 8.257c0.552 0.758 1.615 0.926 2.376 0.375l4.128-3c0.76-0.553 0.928-1.616 0.377-2.375z" fill="none" stroke="#231f20" stroke-width=".4"/>
</g>
</g>
</g>
</g>
</svg>
